<svg id="Calque_1" data-name="Calque 1" xmlns="http://www.w3.org/2000/svg" viewBox="0 0 1244.77 1033.19"><defs><style>.cls-1{fill:#fff;}</style></defs><path class="cls-1" d="M1872.51,1033.19H960V0h912.51ZM1165.08,261.43c1.7-1.24,3.22-2.2,4.55-3.37,1.57-1.38,3-1.68,4.79-.37a4.17,4.17,0,0,0,4.67.31,7.23,7.23,0,0,1,3.24-.39c1.55,0,2.43.82,2.25,1.81-.22,1.23-1.24.74-2,.88-2,.38-2.38,1.05-2.45,3.08a3.13,3.13,0,0,0,1.08,2.53c.89.85,1.92,1.57,2.8,2.43a3.54,3.54,0,0,0,4.17.79c2.27-.95,4.58-1.81,6.85-2.76a2.76,2.76,0,0,0,1.65-2.22c.09-.54,0-1.11,0-1.66.17-2.06.47-2.35,2.25-2.91,2.92-.9,6.06.14,8.93-1.05.11,0,.27,0,.41.07a25.71,25.71,0,0,1,4.4,1.08c2.38,1,4.78,2.16,6.47,4.27.92,1.16,1.54,2.45,3.13,3.11s2.49,2.15,3.92,2.84a44.37,44.37,0,0,0,6.2,2.22c1.83.58,3.75.89,5.54,1.57,3.34,1.27,6.63,2.69,9.92,4.1a13,13,0,0,0,11.58-.24c4-2,8.46-2.41,12.55-4a3.84,3.84,0,0,1,1.23-.11,67.53,67.53,0,0,0,16.73-2.28,17.5,17.5,0,0,1,3.71-.24,3.83,3.83,0,0,1,3,1.22c2.65,2.61,5.41,5.1,8,7.78,1.87,2,3.78,3.58,6.7,3.5a3.16,3.16,0,0,1,3.15,2.27,23.78,23.78,0,0,1,1.85,6.31,13.47,13.47,0,0,0,1.49,5.09,54.22,54.22,0,0,0,3.85,5.86,6.24,6.24,0,0,0,3.84,2.92,2.67,2.67,0,0,1,2.24,3c-.21,3,.81,5.71,2,8.34,2.25,4.94,5,9.45,10,12.25a10.69,10.69,0,0,1,3.51,3.41,21.78,21.78,0,0,0,4.6,5.24c1.6,1.28,2.92,2.85,4.79,3.88,2,1.13,2.34,2.8,1.59,5a31.43,31.43,0,0,0-1,3.53c-.78,3.52-1.24,7,0,10.59a10,10,0,0,1,.16,2.06c.26,2.05.53,4.1.83,6.14.18,1.23.49,2.44.63,3.67.55,4.79,1.19,9.58,1.53,14.39a41.37,41.37,0,0,1-.16,9.89c-.49,2.75-1.28,5.29.33,7.87a1.55,1.55,0,0,1,.15.81c.06,3.72.14,7.44.15,11.15,0,1.64-.09,3.29-.23,4.92s0,3.45-.71,4.84a10.23,10.23,0,0,0-.79,5.61,65.78,65.78,0,0,1,.46,9.07c-.48,6.48-.46,13-.44,19.44a8.54,8.54,0,0,1-.33,3.67c-1.11,2.27-.76,4.58-.72,6.9,0,2.07.16,4.14.09,6.2-.22,7.17-.55,14.33-.75,21.5a43.41,43.41,0,0,1-1.31,11.06,5.17,5.17,0,0,0-.39,2c.67,4.72-.54,9.35-.6,14s-.33,9.65-.34,14.48a9.66,9.66,0,0,1-2.75,6.69c-.64.71-1.43,1.28-2.14,1.93-2.54,2.29-3.15,5.36-3.47,8.55,1.27,2.76.94,6,2.63,8.64.88,1.39,1.54,2.91,2.35,4.33a12.38,12.38,0,0,1,1.94,6.65c-.09,2.9,0,5.8,0,8.7,0,17.52,0,35,0,52.57a21.57,21.57,0,0,1-.81,6.52,33.07,33.07,0,0,0-1.38,10.59q0,48.43,0,96.87c0,2.76.16,5.52-1.53,8a4.6,4.6,0,0,0-.48,2c-.26,2.33-.46,4.66-.73,7a10,10,0,0,1-.62,3.21,24.48,24.48,0,0,0-2.23,11.23q0,10.14,0,20.28a13.69,13.69,0,0,1-1.27,6,22.83,22.83,0,0,0-1.74,7.6,84.44,84.44,0,0,0,0,11.58,18,18,0,0,0,1.64,7.17c1,1.92,2,3.85,2.91,5.81a13.28,13.28,0,0,1,1.34,6.37c0,1.65,0,3.31,0,5,0,3.69.52,7.48-1.85,10.78-.15.2-.07.55-.18.8a13.16,13.16,0,0,1-1.24,2.56c-3.11,4.25-3.41,8.79-.56,13.08,1.89,2.83,2,5.57,1.55,8.64a53.58,53.58,0,0,0-.56,6.57c-.06,9.66,0,19.32,0,29,0,1.24,0,2.48-.07,3.72-.15,1.84-.71,2.61-2.44,2.79-4.14.45-8,1.88-12,2.92-1.86.48-2.63,1.25-2.76,3.12s-.07,3.86-.06,5.79a6.39,6.39,0,0,0,1.69,4.54c.83.91,1.49,2,2.3,2.92a5.53,5.53,0,0,1,.88,6.51,22.35,22.35,0,0,0-1.19,3.93c-.93,3.66-.62,7.41-.58,11.12,0,3.5.07,6.87-2.8,9.54a3.33,3.33,0,0,0-.64,3.86c.25.63.4,1.32.64,2a3.77,3.77,0,0,0,3,2.61c2.16.38,4.33.8,6.51,1s4.14,0,6.21.05a23.32,23.32,0,0,0,10.07-1.9c1.47-.67,2.48-.26,3.73.66a56,56,0,0,0,7,4.32c2.9,1.53,5.9-.16,8.86-.1.42,0,.88-.6,1.28-1,1.8-1.71,3.55-3.47,5.38-5.15,2.55-2.32,5.13-4.59,7.74-6.85a3.34,3.34,0,0,1,4.21-.14c.12.07.22.17.34.25,2.54,1.63,5.07,3.29,7.63,4.89a5.46,5.46,0,0,0,2.24,1c3,.24,6,.58,9-.63a15.1,15.1,0,0,1,4.4-.89,37.31,37.31,0,0,1,5,0,17.65,17.65,0,0,0,10.67-2.65,7.51,7.51,0,0,1,4.34-1.11c3.4,0,6.57.75,9.2,3.08a10.94,10.94,0,0,0,5.52,2.66,48,48,0,0,0,5.72.69,7.71,7.71,0,0,1,5.23,2,14.33,14.33,0,0,0,8,3.91,21.15,21.15,0,0,1,7.33,2.59,18.6,18.6,0,0,0,4.87,2,30.17,30.17,0,0,0,7.39.7,12.26,12.26,0,0,1,5.67.83,4.37,4.37,0,0,0,2.39.18c1.6-.24,3.18-.64,4.91-1,2.15-4.35,1.85-9,1.35-13.69a19.28,19.28,0,0,0-1.41-6,12.87,12.87,0,0,1-1.1-5.59c0-5.25.15-10.49-.06-15.73a30.68,30.68,0,0,0-1.4-8.92,21.3,21.3,0,0,1-1.33-6.37c-.11-2.75-.32-5.58-1.72-8a9.59,9.59,0,0,1-1.27-5.11q0-39.95,0-79.89c0-1.82.1-3.54,1.33-5.08a6.59,6.59,0,0,0,.94-2.68c1.17-5.18.88-10.43.53-15.66a11.4,11.4,0,0,0-1.24-5.17c-1.45-2.29-1.57-4.63-1.56-7.13q0-34.35,0-68.72c0-2.47-.25-5,1.63-7.06a3.44,3.44,0,0,0,.53-1.54c1.14-5.09,1.41-10.09-1.56-14.76a3.16,3.16,0,0,1-.47-1.56c-.07-2.6-.55-5.24.53-7.77a10.36,10.36,0,0,0,.38-5.3,76.1,76.1,0,0,1-.65-7.82q-.09-29,0-57.95c0-1.93.2-3.85.28-5.78.13-2.89.34-5.78.3-8.66,0-3.45-.44-6.89-.5-10.33-.1-5.93-.25-11.87,0-17.8q.4-10.95,0-21.9c-.21-5.37,0-10.75,0-16.13s-.44-11-.19-16.55c.45-10.22-.23-20.41-.38-30.62-.11-7.17-.76-14.32-.93-21.49-.17-6.75-.06-13.51,0-20.26,0-2.6.56-5.19-.72-7.71-.4-.79-.17-1.9-.25-2.86-.1-1.24-.18-2.48-.32-3.71-.24-2.18-.56-4.36-.76-6.54-.18-1.93-.22-3.86-.34-5.79-.39-6.6-1.38-13.17-1.26-19.81A17.17,17.17,0,0,0,1486,423c-.51-2.43-1.23-4.82-1.54-7.27-.75-5.88-1.24-11.79-2-17.67q-.72-5.74-1.86-11.42c-.76-3.76-1.17-7.64-2.95-11.15a18.43,18.43,0,0,1-2.13-6.63c-.11-1.17-.91-2.26-1.33-3.41a7.4,7.4,0,0,1-.75-2.71c.17-3.43.36-6.88.86-10.28a91.56,91.56,0,0,0,.56-14,4,4,0,0,0-.27-1.62c-1.53-3.12-1.2-6.46-1.22-9.74,0-4.14.28-8.28.15-12.42a15.69,15.69,0,0,1,2.08-8.72,3.85,3.85,0,0,1,1.08-.47c1.65-.17,3.3-.32,4.95-.39a29.76,29.76,0,0,0,12.39-2.9c6.11-3.14,12.62-5.48,18.4-9.29a10.89,10.89,0,0,1,3.89-1.29,3,3,0,0,1,3.2,1.44,21.13,21.13,0,0,1,2.21,4c.87,2.45,2.73,4,4.36,5.9,3.63,4.16,8.29,5.63,13.6,5.83a15.6,15.6,0,0,1,4.85.85c4.08,1.53,8.28,1.59,12.55,1.83,3.82.22,6.28-1.44,8.43-4.16.34-.44.65-.9,1-1.35a3.79,3.79,0,0,1,3.12-1.73c.86-.05,2,.35,2.55-.93-.71-1.49-2.22-2-3.59-2.47a44,44,0,0,0-5.17-1.44,49.13,49.13,0,0,1-12.73-4.78c-2.51-1.39-5-2.89-6.71-5.35-1.17-1.71-2.45-3.34-3.56-5.08-2-3.07-2.15-5.68.71-8.1a6.72,6.72,0,0,0,2.23-3.85,40.56,40.56,0,0,0,1-5.68,6,6,0,0,1,2.54-4.53,9.44,9.44,0,0,1,2.81-1.7,33.18,33.18,0,0,0,7.79-3.66c4.43-2.63,9.66-3,14.51-4.38a2.88,2.88,0,0,1,.83,0c2.76.09,5.52.34,8.27.24,3.62-.13,6.19,2.08,9,3.65a1.12,1.12,0,0,1,.53.61c.5,2.16,2.34,3.35,3.52,5,2.79,3.92,5.43,7.94,8.17,11.89a14.67,14.67,0,0,0,2.1,2.48c5.77,5.37,13.19,6.36,20.5,7.6a2.69,2.69,0,0,0,1.2-.22c6.36-2.13,12.16-5.15,16.56-10.41,1-1.16,1.71-2.66,2.92-3.42,1.64-1,2.06-2.52,2.5-4.09a30.8,30.8,0,0,0,.72-4.06c1-7.7,1-7.76,6.58-13.05a87.52,87.52,0,0,0,9.83-11.08,36.3,36.3,0,0,1,3.85-4.27,51.61,51.61,0,0,1,14.89-9.51,6.12,6.12,0,0,0,2.12-1.24c1.82-2,4.3-2.87,6.6-4.11,2.93-1.59,5.8-1.38,8.8-.64a3.34,3.34,0,0,1,2.49,2c1.7,4.28,5.77,6.15,9,8.75,2,1.56,4.43,1.22,6.67,0,.66-.37,1.43-1,2.13.14l-1.79,3c2.48,3.23,7.39,6.25,11.94,7.31.43-1.52.85-3.09,1.34-4.63a3,3,0,0,1,3.07-2.3c1.1,0,2.21.09,3.31.13,2.56.07,4.95-.27,6.74-2.43a1.74,1.74,0,0,1,1.43-.26c.22,0,.43.66.47,1,.07.78,0,1.56,0,2.51,1.15.14,2.08.28,3,.37s2.06-.14,2.85.26c1.74.89,3.29.34,4.74-.38,3.71-1.83,7.33-3.85,9.82-7.55-.47-.56-1-1.13-1.48-1.78a2.74,2.74,0,0,1,.14-3.76c1.95-2,2.79-2.64,5.2-.6a6.47,6.47,0,0,1,.93,1.22,9.28,9.28,0,0,1-2.51,5.11,40.79,40.79,0,0,1,5.27.85,69.13,69.13,0,0,1,8.57,3,20.16,20.16,0,0,0,6.42,1.33c4.21.44,8.11-.69,12.07-1.92a22,22,0,0,0-4-9.07,4.55,4.55,0,0,1-1.1-3,11,11,0,0,0-3.51-8.91,5.44,5.44,0,0,1-1.65-3.71,2.57,2.57,0,0,1,2.3-2.91,27,27,0,0,1,3.71-.19c3.73,0,7.46.21,11.17,0a23.38,23.38,0,0,0,6.06-1.17,4.51,4.51,0,0,0,2.42-2.05,7.78,7.78,0,0,0,1-5.34,15.51,15.51,0,0,1-3.48-1,27.4,27.4,0,0,1-3.24-2.52c-.76-.57-1.65-1-2.37-1.62a6.89,6.89,0,0,0-3.33-1.5,49.38,49.38,0,0,0-14-.55,83,83,0,0,1-8.64,0,10.76,10.76,0,0,1-7.86-3.06,8.94,8.94,0,0,0-5.42-2.83,20.33,20.33,0,0,0-9.37,1.08,3.6,3.6,0,0,0-2.4,2.11,6.44,6.44,0,0,1-2.18,2.94c-2.32,1.92-3.44,2-5.82.1a68.67,68.67,0,0,1-5.4-5.12,12.78,12.78,0,0,1-4-9.56,10.91,10.91,0,0,0-6.61-10.6,28.69,28.69,0,0,1-7.4-5.22,10.29,10.29,0,0,0-4.63-2.55,13.13,13.13,0,0,1-6-2.76c-2.95-2.68-6.54-3.39-10.28-3.81l-3.21-.37c.67-.57.89-.9,1.19-1,2.86-1,3.79-3.58,4.55-6,.64-2.06.52-4.36.68-6.56a2.15,2.15,0,0,0-1.79-2.42c-4-.88-8.07-1.71-12.11-2.52a4.53,4.53,0,0,0-1.64,0c-2.84.5-5.69,1-8.51,1.59a61.61,61.61,0,0,1-14.38,1.47,8.34,8.34,0,0,0-1.66,0c-3.07.61-6,1.41-6.37,5.3a2.08,2.08,0,0,1-2.28,2c-4.37,0-8.84.95-13-1.24a3.76,3.76,0,0,0-1.2-.28,23.52,23.52,0,0,1-8.48-3.15,19.4,19.4,0,0,0-8.15-2.75,8,8,0,0,1-3.78-1.48,41.23,41.23,0,0,0-5.73-3.24,43.18,43.18,0,0,0-16.93-3.12c-1,0-1.94,0-2.9-.12a6.53,6.53,0,0,1-4.06-1.86,14.6,14.6,0,0,1-3.87-5.8c-.86-2.74-1.34-5.56-2.63-8.22-1.12-2.29-.11-3.74,2.26-4.85,2-.93,3.9-2,5.82-3.09a7.37,7.37,0,0,0,3.85-7.24,41.23,41.23,0,0,0-.92-6.53,4,4,0,0,0-1.32-2,16.57,16.57,0,0,0-4-2.88,29.91,29.91,0,0,1-8.16-5.53,10.37,10.37,0,0,0-9.95-2.62,45.67,45.67,0,0,0-4.71,1.44,6.7,6.7,0,0,1-5.59,0,23.31,23.31,0,0,0-9.63-2c-3.32,0-6.63,0-9.94,0a20.65,20.65,0,0,0-8.08,1.55,15.72,15.72,0,0,1-6.41,1.22,17.47,17.47,0,0,0-7.65,1.54,15.51,15.51,0,0,1-6.81,1.32c-2.32,0-4.67-.25-6.72,1-1.92-2.15-1.9-2.21-4.1-2.89a18.57,18.57,0,0,1-6.63-3.25,4,4,0,0,0-3.82-1,3.49,3.49,0,0,1-2.36-.23,3.76,3.76,0,0,0-3.54.13,12.36,12.36,0,0,1-6,.93c-2.58-.17-5.2-.07-7.8-.25a20.35,20.35,0,0,0-3.67.5,25.33,25.33,0,0,1-5.71.54c-2.58-.29-4.75.28-6.35,2.17a7.39,7.39,0,0,1-7,2.56,20.35,20.35,0,0,0-2.07-.12c-5.24,0-10.48-.08-15.73-.08-1.82,0-3.54.25-4.8,1.9a2.61,2.61,0,0,1-1.82.67c-2.89.1-5.78.09-8.67.13-1.81,0-3.57,0-5.1-1.28a3.81,3.81,0,0,0-1.93-.62c-2.88-.32-5.75-.72-8.63-.8-4.83-.13-9.67-.15-14.49,0a104.74,104.74,0,0,0-16.48,1.4,60.76,60.76,0,0,0-11.86,3.42,6.81,6.81,0,0,1-6,0,7.09,7.09,0,0,0-8.12.88,7.84,7.84,0,0,1-4.54,1.83A9,9,0,0,0,1340,87c-2.88,2.56-6.41,3.66-10.17,4.17a9.38,9.38,0,0,1-4.45-.5c-4.66-1.64-9.33-2.39-13.8.6a1,1,0,0,1-.38.16c-3.49.66-6.75,2.46-10.48,1.92a33.44,33.44,0,0,0-4.13,0,15.27,15.27,0,0,0-7.53,1.75,38.07,38.07,0,0,1-12.42,4.27,25.38,25.38,0,0,0-7.59,1.92,9.5,9.5,0,0,1-3.65.47A25.35,25.35,0,0,0,1255,104a32.4,32.4,0,0,1-4.73,1.45,25.7,25.7,0,0,0-2.75.84,15.46,15.46,0,0,1-12.4,0c-3.09-1.32-6.21-.86-9.35-.5a3.8,3.8,0,0,0-1.42.79,22.79,22.79,0,0,1-10.77,3.46,17.8,17.8,0,0,0-6,1.2,5.28,5.28,0,0,0-3,2.63,49.37,49.37,0,0,1-3.74,5.39,4.35,4.35,0,0,1-3.19,1.74c-4.37.38-8.64,1.78-13.11,1.34-1.37-.14-2.76,0-4.14,0a10.75,10.75,0,0,0-5.09,1.32,27.86,27.86,0,0,1-10.1,3.2c-4.8.41-9.45,1.61-13.16,4.84-.08,1.43-.17,2.66-.2,3.89s0,2.71,0,4c-1.48,2.06-2.88,3.89-5.66,3.79-.51,0-1.18.66-1.54,1.18a3.33,3.33,0,0,1-3.21,1.41c-1.5-.05-3.05.35-4.51.12-2.51-.4-4.3.73-5.9,2.3-1.87,1.82-3.6,3.78-5.33,5.74a7.69,7.69,0,0,0-.94,1.77c1.75,1.41,3.31,2.54,4.7,3.84a3.29,3.29,0,0,1,1.07,2.12c0,3,.12,6-1.42,8.77-1.43,2.6-2.14,3.15-5.19,2.75-2.7-.36-5.11.8-7.63,1.38-.58.14-1.09.82-1.52,1.35a7.22,7.22,0,0,0-1,1.78,7.81,7.81,0,0,1-4.76,4.29c-2.16.84-4.25,1.88-6.34,2.89a3.08,3.08,0,0,1-3.16,0c-2.14-1.43-4.56-1.31-6.8-1a17.27,17.27,0,0,1-7.31-.62c-1.33-.37-2.67-.71-4-1.1a15.51,15.51,0,0,0-12.77,1.33,29.71,29.71,0,0,1-11.71,3.74,70.16,70.16,0,0,1-24.26-.86,27.64,27.64,0,0,0-6.18-.25,4.62,4.62,0,0,0-3.57,1.75,18,18,0,0,1-6.59,4.85,15.76,15.76,0,0,0-3.56,2.09c-2,1.56-3.51,3.45-2.93,6.32a4.76,4.76,0,0,1-.1,2.78,7.9,7.9,0,0,0-.37,4.73,22,22,0,0,0-3.56,2.24,56.36,56.36,0,0,0-4.75,5.14,4.28,4.28,0,0,0-.58,5c1.29,2.18,3.22,4.11,5.83,4.17,3.42.09,6.86-.44,9.43-3.22,1-1.1,1.65-1.16,2.9-.41s2.28,1.48,3.28,2.14c4.88-1.64,5.47-1.54,6.64,1.1a20.75,20.75,0,0,0-2.85,0c-.94.14-1.83.59-2.76.75a4.54,4.54,0,0,1-2-.09c-.88-.26-1.61-1.44-2.59-.73a8.65,8.65,0,0,0-1.62,2.22c-.36.53-.7,1.07-1.21,1.84,1,.82,1.74,1.9,2.66,2.09,3.32.67,6.53,2.36,10.1,1.31a3.83,3.83,0,0,1,1.94.41c4,1.31,7.77,1.69,10.9-2a6.05,6.05,0,0,1,5.12-2.24,6.48,6.48,0,0,1,3.39,1.38c2.1,1.49,4.26,1.81,6.46.09a5.64,5.64,0,0,1,1.86-.8c1.3-.38,2.62-.69,3.94-1a25.19,25.19,0,0,0,3.5,1.06,4.48,4.48,0,0,1,3.34,2.19c.77,1.28,1.28,2.71,1.95,4a17.37,17.37,0,0,0,1.77,3.2c1.22,1.5,2.54,1.45,3.85,0,.65-.71,1.12-1.59,1.82-2.25a16.44,16.44,0,0,1,2.18-1.54,7.55,7.55,0,0,1,.93.54c2.15,1.89,4.18,3.79,4,7.07-.05,1,.66,2,1,2.95a5,5,0,0,0,1.39.47,61.47,61.47,0,0,1,12.34.89,5.37,5.37,0,0,0,1.65,0,6.43,6.43,0,0,1,4.35.85c1.28.75,1.79.34,2.84-.71s.72-2.81,1.16-4.08c5.4-.78,10.69-.68,15.73-2.28a1.63,1.63,0,0,1,.82,0c.7.17,1.33.43,1.15,1.16-1.5,1-2.91,1.75-4.2,2.7s-1.29,2.3-.23,3.77c1.14-.27,2.31-.61,3.5-.82,2.06-.36,3.9,0,4.81,2.15a3.47,3.47,0,0,0,2,1.91,32.35,32.35,0,0,0,5,1.77,23.45,23.45,0,0,1,5.44,1.85c2.7,1.34,5.4,2.7,8.58,2.76A22.68,22.68,0,0,1,1165.08,261.43Z" transform="translate(-627.74)"/><path d="M1165.08,261.43a22.68,22.68,0,0,0-12.54-3.6c-3.18-.06-5.88-1.42-8.58-2.76a23.45,23.45,0,0,0-5.44-1.85,32.35,32.35,0,0,1-5-1.77,3.47,3.47,0,0,1-2-1.91c-.91-2.18-2.75-2.51-4.81-2.15-1.19.21-2.36.55-3.5.82-1.06-1.47-1.15-2.75.23-3.77s2.7-1.74,4.2-2.7c.18-.73-.45-1-1.15-1.16a1.63,1.63,0,0,0-.82,0c-5,1.6-10.33,1.5-15.73,2.28-.44,1.27,0,2.9-1.16,4.08s-1.56,1.46-2.84.71a6.43,6.43,0,0,0-4.35-.85,5.37,5.37,0,0,1-1.65,0,61.47,61.47,0,0,0-12.34-.89,5,5,0,0,1-1.39-.47c-.31-.91-1-1.95-1-2.95.16-3.28-1.87-5.18-4-7.07a7.55,7.55,0,0,0-.93-.54,16.44,16.44,0,0,0-2.18,1.54c-.7.66-1.17,1.54-1.82,2.25-1.31,1.42-2.63,1.47-3.85,0a17.37,17.37,0,0,1-1.77-3.2c-.67-1.34-1.18-2.77-1.95-4a4.48,4.48,0,0,0-3.34-2.19,25.19,25.19,0,0,1-3.5-1.06c-1.32.34-2.64.65-3.94,1a5.64,5.64,0,0,0-1.86.8c-2.2,1.72-4.36,1.4-6.46-.09a6.48,6.48,0,0,0-3.39-1.38,6.05,6.05,0,0,0-5.12,2.24c-3.13,3.67-6.9,3.29-10.9,2a3.83,3.83,0,0,0-1.94-.41c-3.57,1.05-6.78-.64-10.1-1.31-.92-.19-1.66-1.27-2.66-2.09.51-.77.85-1.31,1.21-1.84a8.65,8.65,0,0,1,1.62-2.22c1-.71,1.71.47,2.59.73a4.54,4.54,0,0,0,2,.09c.93-.16,1.82-.61,2.76-.75a20.75,20.75,0,0,1,2.85,0c-1.17-2.64-1.76-2.74-6.64-1.1-1-.66-2.11-1.45-3.28-2.14s-1.88-.69-2.9.41c-2.57,2.78-6,3.31-9.43,3.22-2.61-.06-4.54-2-5.83-4.17a4.28,4.28,0,0,1,.58-5,56.36,56.36,0,0,1,4.75-5.14,22,22,0,0,1,3.56-2.24,7.9,7.9,0,0,1,.37-4.73,4.76,4.76,0,0,0,.1-2.78c-.58-2.87.88-4.76,2.93-6.32a15.76,15.76,0,0,1,3.56-2.09,18,18,0,0,0,6.59-4.85,4.62,4.62,0,0,1,3.57-1.75,27.64,27.64,0,0,1,6.18.25,70.16,70.16,0,0,0,24.26.86,29.71,29.71,0,0,0,11.71-3.74,15.51,15.51,0,0,1,12.77-1.33c1.32.39,2.66.73,4,1.1a17.27,17.27,0,0,0,7.31.62c2.24-.33,4.66-.45,6.8,1a3.08,3.08,0,0,0,3.16,0c2.09-1,4.18-2.05,6.34-2.89a7.81,7.81,0,0,0,4.76-4.29,7.22,7.22,0,0,1,1-1.78c.43-.53.94-1.21,1.52-1.35,2.52-.58,4.93-1.74,7.63-1.38,3.05.4,3.76-.15,5.19-2.75,1.54-2.8,1.39-5.79,1.42-8.77a3.29,3.29,0,0,0-1.07-2.12c-1.39-1.3-3-2.43-4.7-3.84a7.69,7.69,0,0,1,.94-1.77c1.73-2,3.46-3.92,5.33-5.74,1.6-1.57,3.39-2.7,5.9-2.3,1.46.23,3-.17,4.51-.12a3.33,3.33,0,0,0,3.21-1.41c.36-.52,1-1.19,1.54-1.18,2.78.1,4.18-1.73,5.66-3.79,0-1.26,0-2.62,0-4s.12-2.46.2-3.89c3.71-3.23,8.36-4.43,13.16-4.84a27.86,27.86,0,0,0,10.1-3.2,10.75,10.75,0,0,1,5.09-1.32c1.38,0,2.77-.12,4.14,0,4.47.44,8.74-1,13.11-1.34a4.35,4.35,0,0,0,3.19-1.74,49.37,49.37,0,0,0,3.74-5.39,5.28,5.28,0,0,1,3-2.63,17.8,17.8,0,0,1,6-1.2,22.79,22.79,0,0,0,10.77-3.46,3.8,3.8,0,0,1,1.42-.79c3.14-.36,6.26-.82,9.35.5a15.46,15.46,0,0,0,12.4,0,25.7,25.7,0,0,1,2.75-.84A32.4,32.4,0,0,0,1255,104a25.35,25.35,0,0,1,10.41-2.28,9.5,9.5,0,0,0,3.65-.47,25.38,25.38,0,0,1,7.59-1.92A38.07,38.07,0,0,0,1289.06,95a15.27,15.27,0,0,1,7.53-1.75,33.44,33.44,0,0,1,4.13,0c3.73.54,7-1.26,10.48-1.92a1,1,0,0,0,.38-.16c4.47-3,9.14-2.24,13.8-.6a9.38,9.38,0,0,0,4.45.5c3.76-.51,7.29-1.61,10.17-4.17a9,9,0,0,1,5.84-2.71,7.84,7.84,0,0,0,4.54-1.83,7.09,7.09,0,0,1,8.12-.88,6.81,6.81,0,0,0,6,0,60.76,60.76,0,0,1,11.86-3.42,104.74,104.74,0,0,1,16.48-1.4c4.82-.15,9.66-.13,14.49,0,2.88.08,5.75.48,8.63.8a3.81,3.81,0,0,1,1.93.62c1.53,1.25,3.29,1.3,5.1,1.28,2.89,0,5.78,0,8.67-.13a2.61,2.61,0,0,0,1.82-.67c1.26-1.65,3-1.9,4.8-1.9,5.25,0,10.49,0,15.73.08a20.35,20.35,0,0,1,2.07.12,7.39,7.39,0,0,0,7-2.56c1.6-1.89,3.77-2.46,6.35-2.17a25.33,25.33,0,0,0,5.71-.54,20.35,20.35,0,0,1,3.67-.5c2.6.18,5.22.08,7.8.25a12.36,12.36,0,0,0,6-.93,3.76,3.76,0,0,1,3.54-.13,3.49,3.49,0,0,0,2.36.23,4,4,0,0,1,3.82,1,18.57,18.57,0,0,0,6.63,3.25c2.2.68,2.18.74,4.1,2.89,2.05-1.21,4.4-1,6.72-1a15.51,15.51,0,0,0,6.81-1.32,17.47,17.47,0,0,1,7.65-1.54,15.72,15.72,0,0,0,6.41-1.22,20.65,20.65,0,0,1,8.08-1.55c3.31,0,6.62,0,9.94,0a23.31,23.31,0,0,1,9.63,2,6.7,6.7,0,0,0,5.59,0,45.67,45.67,0,0,1,4.71-1.44,10.37,10.37,0,0,1,9.95,2.62,29.91,29.91,0,0,0,8.16,5.53,16.57,16.57,0,0,1,4,2.88,4,4,0,0,1,1.32,2,41.23,41.23,0,0,1,.92,6.53,7.37,7.37,0,0,1-3.85,7.24c-1.92,1.07-3.83,2.16-5.82,3.09-2.37,1.11-3.38,2.56-2.26,4.85,1.29,2.66,1.77,5.48,2.63,8.22a14.6,14.6,0,0,0,3.87,5.8,6.53,6.53,0,0,0,4.06,1.86c1,.09,1.93.12,2.9.12a43.18,43.18,0,0,1,16.93,3.12,41.23,41.23,0,0,1,5.73,3.24,8,8,0,0,0,3.78,1.48,19.4,19.4,0,0,1,8.15,2.75,23.52,23.52,0,0,0,8.48,3.15,3.76,3.76,0,0,1,1.2.28c4.17,2.19,8.64,1.2,13,1.24a2.08,2.08,0,0,0,2.28-2c.39-3.89,3.3-4.69,6.37-5.3a8.34,8.34,0,0,1,1.66,0,61.61,61.61,0,0,0,14.38-1.47c2.82-.61,5.67-1.09,8.51-1.59a4.53,4.53,0,0,1,1.64,0c4,.81,8.08,1.64,12.11,2.52a2.15,2.15,0,0,1,1.79,2.42c-.16,2.2,0,4.5-.68,6.56-.76,2.42-1.69,5-4.55,6-.3.1-.52.43-1.19,1l3.21.37c3.74.42,7.33,1.13,10.28,3.81a13.13,13.13,0,0,0,6,2.76,10.29,10.29,0,0,1,4.63,2.55,28.69,28.69,0,0,0,7.4,5.22,10.91,10.91,0,0,1,6.61,10.6,12.78,12.78,0,0,0,4,9.56,68.67,68.67,0,0,0,5.4,5.12c2.38,1.95,3.5,1.82,5.82-.1a6.44,6.44,0,0,0,2.18-2.94,3.6,3.6,0,0,1,2.4-2.11,20.33,20.33,0,0,1,9.37-1.08,8.94,8.94,0,0,1,5.42,2.83,10.76,10.76,0,0,0,7.86,3.06,83,83,0,0,0,8.64,0,49.38,49.38,0,0,1,14,.55,6.89,6.89,0,0,1,3.33,1.5c.72.62,1.61,1.05,2.37,1.62a27.4,27.4,0,0,0,3.24,2.52,15.51,15.51,0,0,0,3.48,1,7.78,7.78,0,0,1-1,5.34,4.51,4.51,0,0,1-2.42,2.05,23.38,23.38,0,0,1-6.06,1.17c-3.71.16-7.44,0-11.17,0a27,27,0,0,0-3.71.19,2.57,2.57,0,0,0-2.3,2.91,5.44,5.44,0,0,0,1.65,3.71,11,11,0,0,1,3.51,8.91,4.55,4.55,0,0,0,1.1,3,22,22,0,0,1,4,9.07c-4,1.23-7.86,2.36-12.07,1.92a20.16,20.16,0,0,1-6.42-1.33,69.13,69.13,0,0,0-8.57-3,40.79,40.79,0,0,0-5.27-.85,9.28,9.28,0,0,0,2.51-5.11,6.47,6.47,0,0,0-.93-1.22c-2.41-2-3.25-1.42-5.2.6a2.74,2.74,0,0,0-.14,3.76c.45.65,1,1.22,1.48,1.78-2.49,3.7-6.11,5.72-9.82,7.55-1.45.72-3,1.27-4.74.38-.79-.4-1.9-.17-2.85-.26s-1.87-.23-3-.37c0-.95,0-1.73,0-2.51,0-.37-.25-1-.47-1a1.74,1.74,0,0,0-1.43.26c-1.79,2.16-4.18,2.5-6.74,2.43-1.1,0-2.21-.14-3.31-.13a3,3,0,0,0-3.07,2.3c-.49,1.54-.91,3.11-1.34,4.63-4.55-1.06-9.46-4.08-11.94-7.31l1.79-3c-.7-1.11-1.47-.51-2.13-.14-2.24,1.22-4.69,1.56-6.67,0-3.28-2.6-7.35-4.47-9-8.75a3.34,3.34,0,0,0-2.49-2c-3-.74-5.87-1-8.8.64-2.3,1.24-4.78,2.08-6.6,4.11a6.12,6.12,0,0,1-2.12,1.24,51.61,51.61,0,0,0-14.89,9.51,36.3,36.3,0,0,0-3.85,4.27,87.52,87.52,0,0,1-9.83,11.08c-5.63,5.29-5.57,5.35-6.58,13.05a30.8,30.8,0,0,1-.72,4.06c-.44,1.57-.86,3.07-2.5,4.09-1.21.76-2,2.26-2.92,3.42-4.4,5.26-10.2,8.28-16.56,10.41a2.69,2.69,0,0,1-1.2.22c-7.31-1.24-14.73-2.23-20.5-7.6a14.67,14.67,0,0,1-2.1-2.48c-2.74-4-5.38-8-8.17-11.89-1.18-1.66-3-2.85-3.52-5a1.12,1.12,0,0,0-.53-.61c-2.86-1.57-5.43-3.78-9-3.65-2.75.1-5.51-.15-8.27-.24a2.88,2.88,0,0,0-.83,0c-4.85,1.42-10.08,1.75-14.51,4.38a33.18,33.18,0,0,1-7.79,3.66,9.44,9.44,0,0,0-2.81,1.7,6,6,0,0,0-2.54,4.53,40.56,40.56,0,0,1-1,5.68,6.72,6.72,0,0,1-2.23,3.85c-2.86,2.42-2.68,5-.71,8.1,1.11,1.74,2.39,3.37,3.56,5.08,1.7,2.46,4.2,4,6.71,5.35a49.13,49.13,0,0,0,12.73,4.78,44,44,0,0,1,5.17,1.44c1.37.5,2.88,1,3.59,2.47-.59,1.28-1.69.88-2.55.93a3.79,3.79,0,0,0-3.12,1.73c-.31.45-.62.91-1,1.35-2.15,2.72-4.61,4.38-8.43,4.16-4.27-.24-8.47-.3-12.55-1.83a15.6,15.6,0,0,0-4.85-.85c-5.31-.2-10-1.67-13.6-5.83-1.63-1.86-3.49-3.45-4.36-5.9a21.13,21.13,0,0,0-2.21-4,3,3,0,0,0-3.2-1.44,10.89,10.89,0,0,0-3.89,1.29c-5.78,3.81-12.29,6.15-18.4,9.29a29.76,29.76,0,0,1-12.39,2.9c-1.65.07-3.3.22-4.95.39a3.85,3.85,0,0,0-1.08.47,15.69,15.69,0,0,0-2.08,8.72c.13,4.14-.17,8.28-.15,12.42,0,3.28-.31,6.62,1.22,9.74a4,4,0,0,1,.27,1.62,91.56,91.56,0,0,1-.56,14c-.5,3.4-.69,6.85-.86,10.28a7.4,7.4,0,0,0,.75,2.71c.42,1.15,1.22,2.24,1.33,3.41a18.43,18.43,0,0,0,2.13,6.63c1.78,3.51,2.19,7.39,2.95,11.15s1.38,7.59,1.86,11.42c.74,5.88,1.23,11.79,2,17.67.31,2.45,1,4.84,1.54,7.27a17.17,17.17,0,0,1,.64,3.64c-.12,6.64.87,13.21,1.26,19.81.12,1.93.16,3.86.34,5.79.2,2.18.52,4.36.76,6.54.14,1.23.22,2.47.32,3.71.08,1-.15,2.07.25,2.86,1.28,2.52.74,5.11.72,7.71,0,6.75-.16,13.51,0,20.26.17,7.17.82,14.32.93,21.49.15,10.21.83,20.4.38,30.62-.25,5.5.15,11,.19,16.55s-.18,10.76,0,16.13q.42,11,0,21.9c-.21,5.93-.06,11.87,0,17.8.06,3.44.45,6.88.5,10.33,0,2.88-.17,5.77-.3,8.66-.08,1.93-.28,3.85-.28,5.78q0,29,0,57.95a76.1,76.1,0,0,0,.65,7.82,10.36,10.36,0,0,1-.38,5.3c-1.08,2.53-.6,5.17-.53,7.77A3.16,3.16,0,0,0,1492,723c3,4.67,2.7,9.67,1.56,14.76a3.44,3.44,0,0,1-.53,1.54c-1.88,2.07-1.63,4.59-1.63,7.06q0,34.36,0,68.72c0,2.5.11,4.84,1.56,7.13a11.4,11.4,0,0,1,1.24,5.17c.35,5.23.64,10.48-.53,15.66a6.59,6.59,0,0,1-.94,2.68c-1.23,1.54-1.33,3.26-1.33,5.08q0,39.94,0,79.89a9.59,9.59,0,0,0,1.27,5.11c1.4,2.42,1.61,5.25,1.72,8a21.3,21.3,0,0,0,1.33,6.37,30.68,30.68,0,0,1,1.4,8.92c.21,5.24.06,10.48.06,15.73a12.87,12.87,0,0,0,1.1,5.59,19.28,19.28,0,0,1,1.41,6c.5,4.66.8,9.34-1.35,13.69-1.73.36-3.31.76-4.91,1a4.37,4.37,0,0,1-2.39-.18,12.26,12.26,0,0,0-5.67-.83,30.17,30.17,0,0,1-7.39-.7,18.6,18.6,0,0,1-4.87-2,21.15,21.15,0,0,0-7.33-2.59,14.33,14.33,0,0,1-8-3.91,7.71,7.71,0,0,0-5.23-2,48,48,0,0,1-5.72-.69,10.94,10.94,0,0,1-5.52-2.66c-2.63-2.33-5.8-3-9.2-3.08a7.51,7.51,0,0,0-4.34,1.11,17.65,17.65,0,0,1-10.67,2.65,37.31,37.31,0,0,0-5,0,15.1,15.1,0,0,0-4.4.89c-3,1.21-6,.87-9,.63a5.46,5.46,0,0,1-2.24-1c-2.56-1.6-5.09-3.26-7.63-4.89-.12-.08-.22-.18-.34-.25a3.34,3.34,0,0,0-4.21.14c-2.61,2.26-5.19,4.53-7.74,6.85-1.83,1.68-3.58,3.44-5.38,5.15-.4.38-.86,1-1.28,1-3-.06-6,1.63-8.86.1a56,56,0,0,1-7-4.32c-1.25-.92-2.26-1.33-3.73-.66a23.32,23.32,0,0,1-10.07,1.9c-2.07,0-4.15.12-6.21-.05s-4.35-.6-6.51-1a3.77,3.77,0,0,1-3-2.61c-.24-.64-.39-1.33-.64-2a3.33,3.33,0,0,1,.64-3.86c2.87-2.67,2.83-6,2.8-9.54,0-3.71-.35-7.46.58-11.12a22.35,22.35,0,0,1,1.19-3.93,5.53,5.53,0,0,0-.88-6.51c-.81-.93-1.47-2-2.3-2.92a6.39,6.39,0,0,1-1.69-4.54c0-1.93-.07-3.87.06-5.79s.9-2.64,2.76-3.12c4-1,7.86-2.47,12-2.92,1.73-.18,2.29-1,2.44-2.79.1-1.24.07-2.48.07-3.72,0-9.66,0-19.32,0-29a53.58,53.58,0,0,1,.56-6.57c.41-3.07.34-5.81-1.55-8.64-2.85-4.29-2.55-8.83.56-13.08a13.16,13.16,0,0,0,1.24-2.56c.11-.25,0-.6.18-.8,2.37-3.3,1.81-7.09,1.85-10.78,0-1.66,0-3.32,0-5a13.28,13.28,0,0,0-1.34-6.37c-.95-2-1.88-3.89-2.91-5.81a18,18,0,0,1-1.64-7.17,84.44,84.44,0,0,1,0-11.58,22.83,22.83,0,0,1,1.74-7.6,13.69,13.69,0,0,0,1.27-6q0-10.14,0-20.28a24.48,24.48,0,0,1,2.23-11.23,10,10,0,0,0,.62-3.21c.27-2.33.47-4.66.73-7a4.6,4.6,0,0,1,.48-2c1.69-2.46,1.53-5.22,1.53-8q0-48.44,0-96.87a33.07,33.07,0,0,1,1.38-10.59,21.57,21.57,0,0,0,.81-6.52c.05-17.53,0-35.05,0-52.57,0-2.9-.13-5.8,0-8.7a12.38,12.38,0,0,0-1.94-6.65c-.81-1.42-1.47-2.94-2.35-4.33-1.69-2.65-1.36-5.88-2.63-8.64.32-3.19.93-6.26,3.47-8.55.71-.65,1.5-1.22,2.14-1.93a9.66,9.66,0,0,0,2.75-6.69c0-4.83.28-9.66.34-14.48s1.27-9.31.6-14a5.17,5.17,0,0,1,.39-2,43.41,43.41,0,0,0,1.31-11.06c.2-7.17.53-14.33.75-21.5.07-2.06-.06-4.13-.09-6.2,0-2.32-.39-4.63.72-6.9a8.54,8.54,0,0,0,.33-3.67c0-6.48,0-13,.44-19.44a65.78,65.78,0,0,0-.46-9.07,10.23,10.23,0,0,1,.79-5.61c.69-1.39.56-3.21.71-4.84s.23-3.28.23-4.92c0-3.71-.09-7.43-.15-11.15a1.55,1.55,0,0,0-.15-.81c-1.61-2.58-.82-5.12-.33-7.87a41.37,41.37,0,0,0,.16-9.89c-.34-4.81-1-9.6-1.53-14.39-.14-1.23-.45-2.44-.63-3.67-.3-2-.57-4.09-.83-6.14a10,10,0,0,0-.16-2.06c-1.19-3.54-.73-7.07,0-10.59a31.43,31.43,0,0,1,1-3.53c.75-2.16.45-3.83-1.59-5-1.87-1-3.19-2.6-4.79-3.88a21.78,21.78,0,0,1-4.6-5.24,10.69,10.69,0,0,0-3.51-3.41c-5-2.8-7.74-7.31-10-12.25-1.2-2.63-2.22-5.33-2-8.34a2.67,2.67,0,0,0-2.24-3,6.24,6.24,0,0,1-3.84-2.92,54.22,54.22,0,0,1-3.85-5.86,13.47,13.47,0,0,1-1.49-5.09,23.78,23.78,0,0,0-1.85-6.31,3.16,3.16,0,0,0-3.15-2.27c-2.92.08-4.83-1.53-6.7-3.5-2.56-2.68-5.32-5.17-8-7.78a3.83,3.83,0,0,0-3-1.22,17.5,17.5,0,0,0-3.71.24,67.53,67.53,0,0,1-16.73,2.28,3.84,3.84,0,0,0-1.23.11c-4.09,1.63-8.58,2-12.55,4a13,13,0,0,1-11.58.24c-3.29-1.41-6.58-2.83-9.92-4.1-1.79-.68-3.71-1-5.54-1.57a44.37,44.37,0,0,1-6.2-2.22c-1.43-.69-2.47-2.23-3.92-2.84s-2.21-1.95-3.13-3.11c-1.69-2.11-4.09-3.23-6.47-4.27a25.71,25.71,0,0,0-4.4-1.08c-.14,0-.3-.12-.41-.07-2.87,1.19-6,.15-8.93,1.05-1.78.56-2.08.85-2.25,2.91,0,.55,0,1.12,0,1.66a2.76,2.76,0,0,1-1.65,2.22c-2.27.95-4.58,1.81-6.85,2.76a3.54,3.54,0,0,1-4.17-.79c-.88-.86-1.91-1.58-2.8-2.43a3.13,3.13,0,0,1-1.08-2.53c.07-2,.45-2.7,2.45-3.08.74-.14,1.76.35,2-.88.18-1-.7-1.77-2.25-1.81a7.23,7.23,0,0,0-3.24.39,4.17,4.17,0,0,1-4.67-.31c-1.78-1.31-3.22-1-4.79.37C1168.3,259.23,1166.78,260.19,1165.08,261.43Zm353.83-81.06,8.65.24c1,0,1.94-.08,2.89,0a3.71,3.71,0,0,1,2.61,5.64,10.62,10.62,0,0,1-5.81,4.42,6.45,6.45,0,0,0-4.87,4.6,10.31,10.31,0,0,1-3,4.43c-1.44,1.38-2.92,2.91-5.27,3-.66-1-1.32-1.89-1.83-2.85a3.63,3.63,0,0,0-2.81-2.18,15,15,0,0,1-7.43-3.35,6.12,6.12,0,0,0-3.81-1.34c-2.2-.05-4.4-.27-6.6-.27a6.81,6.81,0,0,0-3.17.55c-2.91,1.6-5.7,1.87-8.58.06a2.4,2.4,0,0,0-3.08.15,4.12,4.12,0,0,1-4.2.89c-1.07-.28-2.22-.2-3.27-.52a39.36,39.36,0,0,0-15.54-1.31c-3.61.33-7,.75-10.2,2.71-1.28.79-2.28,1.41-2.29,3.05a4.17,4.17,0,0,1-4,4.46,4.25,4.25,0,0,0-3.23,2.3,8.76,8.76,0,0,0-1.46,4.25,26.61,26.61,0,0,0,.06,5.36c.82,4,.68,8,.85,11.94.07,1.52.07,3,.1,4.55a2.35,2.35,0,0,0,2.17,2.57c2.56.29,4.23,1.81,5.76,3.67a25.88,25.88,0,0,1,4,5.69c1.28,2.82,3,3.64,6,2.92a17.3,17.3,0,0,1,7.38.14,29.63,29.63,0,0,1,5.56,1.57,12.83,12.83,0,0,0,8.13.37c6.24-1.6,12.7-2.42,18.69-5a6.77,6.77,0,0,1,2.43-.39,39.73,39.73,0,0,0,10.51-2.12,33.89,33.89,0,0,1,5.6-1.37,46.14,46.14,0,0,0,11.51-3.17,87,87,0,0,1,13.35-4.23c2.94-.69,5.83-1.55,8.75-2.32,1.86-.49,3.72-1,5.6-1.41s3.55-.56,5.27-1a29.13,29.13,0,0,1,7.37-.92,48.42,48.42,0,0,0,6.6-.38c3.26-.51,6.47-1.33,9.71-1.93a3.69,3.69,0,0,0,2.68-1.72c2.87-4.52,5.21-9.39,9-13.33,1.85-4.39,5.32-7.67,7.93-11.54a5.63,5.63,0,0,1,2.17-1.78,11.07,11.07,0,0,0,4.17-3.89c2.17-3.1,2-3.86-.93-6.07a25.53,25.53,0,0,1-4.08-3.44,8.65,8.65,0,0,0-7.29-3.17c-1,0-1.94-.12-2.9-.09a10.35,10.35,0,0,1-4.79-1.09c-3.26-1.48-6.54-2.91-9.8-4.37a8.46,8.46,0,0,1-2.21-1.1c-2.08-1.85-4.6-2.39-7.22-2.73a10.68,10.68,0,0,1-4.26-1c-.34-2.66-.63-3.3-2.36-3.31a9.42,9.42,0,0,1-7.33-3.2,4.55,4.55,0,0,0-1-.75,3.84,3.84,0,0,0-5.23.57c-.43.53-.92,1-1.54,1.68-5.14,0-10.37.49-15.6-.2-2.58-.34-4.38.09-5.58,2.9a6.41,6.41,0,0,1-5.19,4.22c-2.26.26-3,2.3-1.31,3.74,2.06,1.76,2.53,4.17,3.55,6.38a9.85,9.85,0,0,1-5.48-1.35,1.5,1.5,0,0,0-1.73,1.94,8.52,8.52,0,0,0,1.82,2.11c1.2,1,2.59,1.67,4.14.86,1.32-.69,1.11-2.05,1.11-3.27C1518.9,180.64,1518.9,180.5,1518.91,180.37Zm-255,27.71c-.33-2.59-.76-4.83.55-7.07,1-1.65.51-3.44,0-5.2-1.32-4.28-4-7.79-6.22-11.6a7.49,7.49,0,0,0-5.15-3.78,15.88,15.88,0,0,1-6.9-3.58,7.78,7.78,0,0,0-2.83-1.64c-3.06-.84-6.15-1.52-9.25-2.19-2.56-.54-5.23-.7-7.68-1.52a54.61,54.61,0,0,0-18.19-3.25c-.83,0-1.65-.2-2.47-.22-5.24-.09-10.49-.23-15.73-.21-3.19,0-5.88.87-7.28,4.3a5.23,5.23,0,0,1-4.57,3.15c-2.33.16-4.68.16-7,.17a2.64,2.64,0,0,1-2.52-1.14c-1.39-2.4-3.64-2.14-5.86-1.93a1.31,1.31,0,0,0-1.25,1.39A13.2,13.2,0,0,0,1162,176a13.61,13.61,0,0,0,1.42.21c3.67.06,7,.84,9.75,3.61a10.77,10.77,0,0,0,2.48,1.37,8,8,0,0,1,1.66,1.13c1.06,1.06,2.09,2.16,3.05,3.32a16.56,16.56,0,0,1,1.27,2.29c-3.46.44-6.36,1.87-9.65.86a3.18,3.18,0,0,0-3.81,1.83c-.63,1.31-1.35,2.77-.45,4.26,3.9,1.6,7.64,3.27,9.08,7.64,1.36,0,2.6,0,3.83,0a3.64,3.64,0,0,0,3.33-1.31c1.21-1.82,3.27-2.52,4.7-4a5,5,0,0,1,5.64-1.28,12.36,12.36,0,0,0,7.7,0c2.81-.84,5.76-2.06,8.83-.68a2.18,2.18,0,0,0,.82.08c2.2.1,4.14-.29,5-2.69a5.11,5.11,0,0,1,3.27-3c3.3-1.26,6.63-2.45,10-3.67,1.41,1.27,2.62,2.38,3.86,3.47a9.93,9.93,0,0,1,2.66,4.59,2.31,2.31,0,0,1,0,1.6c-.86,1.68-1.75,3.39-3.63,4.16-3.67-3.7-3.27-4.65-7.38-2-.31,1-.62,2-1,3.2-1.56.1-2.92.25-4.28.24-1.51,0-3-.19-4.54-.22-1.31,0-2.7-.43-3.9.42.15,1.83,1.54,2.46,2.56,3.25,2,1.51,4.09,2.14,6.54.88A6.35,6.35,0,0,1,1224,205a6.61,6.61,0,0,0,3.91-.88c1.4-.78,1.87-.42,2.95,1.4-.69,1.43-1.3,2.79-2,4.11-1.21,2.31-2.14,4.87-3.78,6.82a22.92,22.92,0,0,0-4.77,9.41c-.84,3.4.46,5.34,4,5.8a46.09,46.09,0,0,0,6.11.05c-.45,5.17-.59,5.34,5.08,6.07a17,17,0,0,0,2.47-.06c1.11,0,2.21,0,3.31,0,8.94.53,17.92,0,26.86,1.21,4.06.56,8.23.19,12.33,1.05,2.06.44,4.36.73,6.36-.45.78-2.48-.49-4.14-1.93-5.65a39.59,39.59,0,0,1-6.23-8.18c-2.17-4-4.82-7.7-5.62-12.31-.31-1.82-1.69-2.77-3.32-3.36C1267.88,209.43,1266.06,208.82,1263.94,208.08Zm139,1.79a57.35,57.35,0,0,0-8.44-.18,5.91,5.91,0,0,0-2.67.94,12.71,12.71,0,0,1-5.08,1.54,52.26,52.26,0,0,1-10.3.59,14.36,14.36,0,0,0-7.16,1.5c-3.94,2-7.88,3.92-12,5.58a33.72,33.72,0,0,0-11.26,8.13,5,5,0,0,0-1,1.31,1.87,1.87,0,0,0,.33,2.29c1.85,1.64,3.71,3.26,5.68,4.74a82,82,0,0,1,8.34,6.64,15.71,15.71,0,0,0,7,4.24,93.3,93.3,0,0,1,9.8,3,18.62,18.62,0,0,0,4,.85c1.77.22,3.56.24,5.34.44a4.75,4.75,0,0,0,3.55-.77,15.54,15.54,0,0,1,7.14-2.87,5.55,5.55,0,0,0,2-.61,5.66,5.66,0,0,0,2.07-1.89,21,21,0,0,0,1.79-5,61.51,61.51,0,0,0,1.31-13.13c-.11-4.68,0-9.36,0-14A29.38,29.38,0,0,0,1402.93,209.87Zm-78.62-11.69a13,13,0,0,0,0-1.48c-.56-2.68-1-5.39-1.75-8a6.49,6.49,0,0,0-1.91-3.07,17.21,17.21,0,0,0-4.84-3.08c-3.71-1.4-7.56-2.47-11.35-3.64-2.1-.65-4.23-1.18-6.3-1.88-4-1.35-7.65-3.76-12-4.35-.52-.07-1-.51-1.48-.7-4.12-1.53-8.24-3.06-12.37-4.56a6.29,6.29,0,0,0-1.61-.31c-1.5-.12-2.44.88-2.07,2.27a29.09,29.09,0,0,0,1.21,3.51,24,24,0,0,1,2.29,8.7c0,2.08,1,3.92,1.89,5.81,1.34,3,3.72,5.08,5.56,7.63,1.68,2.34,3.53,4.56,5.35,6.8,1.65,2,3.48,3.86,4.55,6.32a13.85,13.85,0,0,0,2.25,2.94c1.29,1.59,2.55,3.22,3.9,4.76a66.35,66.35,0,0,0,5,5.41c1.57,1.44,2.81,1.39,4.45.18a86.11,86.11,0,0,0,6.83-5.32c1.94-1.74,3.65-3.7,6-5a14.21,14.21,0,0,0,3.06-2.75,6.21,6.21,0,0,0,1.91-4.41,13,13,0,0,1,.65-3.17C1323.85,199.66,1324.18,198.62,1324.31,198.18Zm219.91-56c.46-.87,1.11-1.54,1.12-2.22.05-2.75,0-5.5-.2-8.24-.23-3.22-4.4-5.61-7.35-4.37a48.28,48.28,0,0,1-5.76,2.18c-3.17.87-6.41,1.49-9.61,2.24a1.78,1.78,0,0,0-.92,2.94,20.33,20.33,0,0,0,2.41,2.22c.73.63,1.56,1.14,2.23,1.82,2.16,2.24,1.47,4.75-1.56,5.46-2.18.51-4.28,1.07-6,2.63a14.2,14.2,0,0,1-4.45,2.94,2.55,2.55,0,0,0-1.48,1.31,53.73,53.73,0,0,0-1.37,6.41,1.84,1.84,0,0,0,1.14,2,13.71,13.71,0,0,0,5.94,1.5,2.42,2.42,0,0,0,2.47-1.78l1.77-5.57a21.51,21.51,0,0,1,2.54-1.36c2.78-1.08,4.49-2.63,4.52-6,0-2.93,3.25-5.61,6.29-5.3C1538.69,141.27,1541.48,140.68,1544.22,142.19Zm-188.55,35c.59-1.68,1.17-3.08,1.58-4.52a16.18,16.18,0,0,0,.5-3.24,4.44,4.44,0,0,0-2.54-4.38,8.64,8.64,0,0,0-9.71.59,5.84,5.84,0,0,1-2,1.25c-3,.49-5.75-.23-7.71-2.82-.41-.54-.66-1.21-1.08-1.75a2.53,2.53,0,0,0-4.18.15,8.78,8.78,0,0,0-1.14,5.58c.23,1.55,1.7,2,2.81,2.78,3.23,2.33,6.48,4.66,8.78,8,1.15,1.7,2.49,3.28,3.77,4.9a1.66,1.66,0,0,0,2.78.07,9.58,9.58,0,0,0,.88-1.39,8.37,8.37,0,0,1,4.85-4.21C1354,177.94,1354.72,177.57,1355.67,177.16Zm283.89,52.51a21.71,21.71,0,0,0-3.27.81,9.94,9.94,0,0,1-4.76,1.07,5,5,0,0,0-5,4,4.69,4.69,0,0,0,3.19,4.36,9.92,9.92,0,0,0,2,.27c1,.06,1.93,0,2.88.11a2.86,2.86,0,0,1,2.89,2.9,23.15,23.15,0,0,0,.42,3.24,2,2,0,0,0,3.52,1.12c1.38-1.13,2.59-2.45,3.89-3.67,2-1.87,4.05-3.7,6-5.6,1.24-1.2,1.19-2.36-.1-3.54a7.13,7.13,0,0,0-4.7-2.31,6.31,6.31,0,0,1-4.82-1.94C1641.29,230,1640.31,229.93,1639.56,229.67Zm-8.2,19a16.11,16.11,0,0,0-2.45-.83c-2.26-.39-3.27-1.72-3.45-4a5.59,5.59,0,0,0-.91-3.08,13.37,13.37,0,0,1-2.68-5.93c-.47-2-1.65-3.19-3.79-3.07a6.54,6.54,0,0,1-5.26-1.84,2.25,2.25,0,0,0-1.88-.31c-.91.25-1.12,1.19-1.08,2a8.69,8.69,0,0,0,2.17,6.06,40.74,40.74,0,0,1,5.15,5.79c1.69,2.63,3.6,5.18,4.5,8.3.55,1.9,2.2,3.1,3.89,4.06,2.11,1.21,6.22-.06,5.81-3.48A33,33,0,0,1,1631.36,248.62Zm-225.55-62c-.25-.48-.32-.83-.51-.94-3.13-1.83-6.22-2-9.22.28-1.31,1-2.56,2.06-3.94,3-2.66,1.72-3.75,4.28-4.06,7.26a2,2,0,0,0,2.16,2.4c2.61.05,5.23,0,7.83-.2,2.35-.2,3.64-1.68,3.88-4.05.08-.82,0-1.65.06-2.48a3.74,3.74,0,0,1,1.82-3.45A13,13,0,0,0,1405.81,186.58Zm-40.62,1.79a36.23,36.23,0,0,0-4.24,1.39,42.07,42.07,0,0,0-4.67,2.64c-2.37,1.51-3,3.75-1.69,6,1.51,2.7,3.52,3.52,6.11,2.39a5,5,0,0,0,2.41-1.54c1.66-2.92,4.32-4,7.38-4.57,1.23-.25,1.67-1.36,1.76-2.53a2.35,2.35,0,0,0-1.73-2.53C1368.83,189.12,1367.07,188.81,1365.19,188.37Zm78.28-1.31c1.57,1.75,3.49,1.81,5.44,1.82a7.69,7.69,0,0,0,4.91-1.9,2.16,2.16,0,0,0,.45-3.26,5.6,5.6,0,0,0-5.33-2.46C1443.06,181.88,1443.65,182,1443.47,187.06Zm228.41,23.06c-1.67-1.22-1.92-1.3-2.63-1.14a3,3,0,0,0-2.33,1.55c-1.22,2.76-2.93,5.33-3.47,8.36a19,19,0,0,0-.26,3.69c0,.43.46.85.69,1.24.48-.2.8-.25,1-.43,2.24-2.3,2.43-5.74,4.67-8.15C1670.75,213.92,1671.13,211.82,1671.88,210.12Zm-379.77-46a7.9,7.9,0,0,0-.58-1.75c-2.21-3.47-7.3-5.46-11.54-4.51-.3.07-.51.55-.89,1,2.12,2.74,5,4.35,7.91,5.76A5.15,5.15,0,0,0,1292.11,164.12Zm388.57,41.23c-.78.45-1.1.52-1.23.73-1.47,2.28-2.92,4.57-4.35,6.89a3.75,3.75,0,0,0-.59,1.51,2.4,2.4,0,0,0,.37,1.46,1.19,1.19,0,0,0,1.13.18,13,13,0,0,0,3.27-1.65c1.88-1.54,3.6-3.28,5.35-5,.14-.13.06-.5.09-1.05Zm-46.16-3.28a1.43,1.43,0,0,0-1.46-1.6,17.61,17.61,0,0,1-6.25-1.65c-3.46-1.5-6.69-.38-9.43,2.07a1.19,1.19,0,0,0-.19,1.09,1.29,1.29,0,0,0,.88.71,11.47,11.47,0,0,0,3.22-.24,18.94,18.94,0,0,1,6.49-.51A19.31,19.31,0,0,1,1633,203,1.2,1.2,0,0,0,1634.52,202.07Zm-408.24-37c.7.77,1.1,1.62,1.72,1.84a21,21,0,0,0,9.7.71c.33,0,.85-.51.84-.76,0-.49-.24-1.24-.59-1.38a18.42,18.42,0,0,0-4.23-1.4A11,11,0,0,0,1226.28,165Zm364.42,7.85c.71-1.86.28-3.07-1.09-3.84a14,14,0,0,0-3.37-1.47,5.9,5.9,0,0,0-2.79.17,1.62,1.62,0,0,0-.68,2.66C1584.86,172.79,1587.48,173.47,1590.7,172.89Zm-164.86-49c-1.38-.87-2.46-1.69-3.66-2.28a4,4,0,0,0-4.25.47c-1.24.88-.88,2.11-.56,3.29C1421.62,126.84,1424.14,126.48,1425.84,123.91Zm62.9,23.87a8.07,8.07,0,0,0,.17-1.36,1.15,1.15,0,0,0-.33-.72,2.23,2.23,0,0,0-1-.62,18,18,0,0,0-3.66-.11c-1.66.19-3.27,1.74-4,3.7A48.72,48.72,0,0,0,1488.74,147.78ZM1068,226.46c-.58-.76-.69-1.05-.9-1.15a3,3,0,0,0-1.54-.5,5,5,0,0,1-5.17-1.54c-.85-.92-2.08-.38-3.08.11s-1.64,1.05-1.08,2.41Zm299-48.23c2.88,2.47,3.5,2.57,6.49,1.09-1.11-2.6-2.17-3.7-3.78-3.65C1368.34,175.72,1367.55,176.63,1367,178.23Zm207.68-13.06a7.58,7.58,0,0,0-.49-1.43,2.92,2.92,0,0,0-4.35-.2c-.93,1.11-.86,3.05.16,3.73a2.7,2.7,0,0,0,3.11,0A7.77,7.77,0,0,0,1574.7,165.17Zm-96,19.75c1,1.49,1.39,1.82,2,1.82a4.79,4.79,0,0,0,4.34-2.45,3.29,3.29,0,0,0-3.42-1.31C1480.37,183.19,1479.16,183.55,1478.68,184.92Zm-166.9-28.22c-.43.42-1.13.8-1.29,1.33a2.19,2.19,0,0,0,.38,1.83,5.09,5.09,0,0,0,4.55,1.21,1.44,1.44,0,0,0,.69-1.22C1315.38,158,1313.73,157.37,1311.78,156.7ZM1256,164.25c-2.14-2.2-4.08-1.94-6-1.27-.74.26-.75,1-.09,2.5Zm.06,92.71c-2.68-.38-4.35-.62-6.22.21C1252.31,258.35,1252.64,258.35,1256.06,257Zm307.43-120.89c-.27-.31-.46-.72-.77-.86a2,2,0,0,0-2.65,2c0,.27.57.71.8.67a7.4,7.4,0,0,0,2.18-.74C1563.3,137,1563.33,136.49,1563.49,136.07Zm-60.56,44.82c-.75.85-1.4,1.31-1.65,1.94-.31.79.44,1.55,1.31,1.55a1.28,1.28,0,0,0,1.34-1.57A7.38,7.38,0,0,0,1502.93,180.89Zm51.92-40.61a23.52,23.52,0,0,0-2.72-.15c-.3,0-.83.53-.79.64.17.45.44,1,.83,1.18a2,2,0,0,0,1.49-.15C1554.05,141.59,1554.27,141.06,1554.85,140.28Zm-413.6,51.91a26.45,26.45,0,0,0,2.26,1.8c1,.61,1.52.11,1.73-1.8ZM1391.16,118c-1,.16-1.5.79-1.44,1.54a1.37,1.37,0,0,0,1.72,1.27,1.22,1.22,0,0,0,.81-1.64C1392.06,118.6,1391.44,118.24,1391.16,118Zm-79.41,50.1c.64.67,1,1.22,1.47,1.48s1.37-.45,1.28-1.09-.51-1.26-1.28-1.19C1312.81,167.29,1312.43,167.66,1311.75,168.05Zm-127.57,57.2a9.87,9.87,0,0,0-2.06-.31c-.23,0-.66.63-.59.8.3.75,1,.8,1.66.56C1183.48,226.2,1183.66,225.82,1184.18,225.25Zm30.46-16.5c-.21-.18-.38-.4-.59-.45s-.33.2-.5.31c.19.15.35.38.56.43S1214.46,208.86,1214.64,208.75Zm-94.55,1.37-.3-.64c-.2.1-.53.19-.55.31s.16.43.25.65Zm10.72-34.26c-.07-.07-.13-.18-.21-.18s-.17.07-.25.12c.07.07.13.18.2.18S1130.72,175.91,1130.81,175.86Z" transform="translate(-627.74)"/><path class="cls-1" d="M1519,180.49c-1-2.21-1.49-4.62-3.55-6.38-1.7-1.44-1-3.48,1.31-3.74a6.41,6.41,0,0,0,5.19-4.22c1.2-2.81,3-3.24,5.58-2.9,5.23.69,10.46.15,15.6.2.62-.66,1.11-1.15,1.54-1.68a3.84,3.84,0,0,1,5.23-.57,4.55,4.55,0,0,1,1,.75,9.42,9.42,0,0,0,7.33,3.2c1.73,0,2,.65,2.36,3.31a10.68,10.68,0,0,0,4.26,1c2.62.34,5.14.88,7.22,2.73a8.46,8.46,0,0,0,2.21,1.1c3.26,1.46,6.54,2.89,9.8,4.37a10.35,10.35,0,0,0,4.79,1.09c1,0,1.93.12,2.9.09a8.65,8.65,0,0,1,7.29,3.17,25.53,25.53,0,0,0,4.08,3.44c2.94,2.21,3.1,3,.93,6.07a11.07,11.07,0,0,1-4.17,3.89,5.63,5.63,0,0,0-2.17,1.78c-2.61,3.87-6.08,7.15-7.93,11.54-3.74,3.94-6.08,8.81-9,13.33a3.69,3.69,0,0,1-2.68,1.72c-3.24.6-6.45,1.42-9.71,1.93a48.42,48.42,0,0,1-6.6.38,29.13,29.13,0,0,0-7.37.92c-1.72.48-3.52.65-5.27,1s-3.74.92-5.6,1.41c-2.92.77-5.81,1.63-8.75,2.32a87,87,0,0,0-13.35,4.23,46.14,46.14,0,0,1-11.51,3.17,33.89,33.89,0,0,0-5.6,1.37,39.73,39.73,0,0,1-10.51,2.12,6.77,6.77,0,0,0-2.43.39c-6,2.59-12.45,3.41-18.69,5a12.83,12.83,0,0,1-8.13-.37,29.63,29.63,0,0,0-5.56-1.57,17.3,17.3,0,0,0-7.38-.14c-3.09.72-4.76-.1-6-2.92a25.88,25.88,0,0,0-4-5.69c-1.53-1.86-3.2-3.38-5.76-3.67a2.35,2.35,0,0,1-2.17-2.57c0-1.52,0-3-.1-4.55-.17-4,0-8-.85-11.94a26.61,26.61,0,0,1-.06-5.36,8.76,8.76,0,0,1,1.46-4.25,4.25,4.25,0,0,1,3.23-2.3,4.17,4.17,0,0,0,4-4.46c0-1.64,1-2.26,2.29-3.05,3.17-2,6.59-2.38,10.2-2.71a39.36,39.36,0,0,1,15.54,1.31c1,.32,2.2.24,3.27.52a4.12,4.12,0,0,0,4.2-.89,2.4,2.4,0,0,1,3.08-.15c2.88,1.81,5.67,1.54,8.58-.06a6.81,6.81,0,0,1,3.17-.55c2.2,0,4.4.22,6.6.27a6.12,6.12,0,0,1,3.81,1.34,15,15,0,0,0,7.43,3.35,3.63,3.63,0,0,1,2.81,2.18c.51,1,1.17,1.84,1.83,2.85,2.35-.08,3.83-1.61,5.27-3a10.31,10.31,0,0,0,3-4.43,6.45,6.45,0,0,1,4.87-4.6,10.62,10.62,0,0,0,5.81-4.42,3.71,3.71,0,0,0-2.61-5.64c-1-.11-1.92,0-2.89,0l-8.65-.24Z" transform="translate(-627.74)"/><path class="cls-1" d="M1263.94,208.08c2.12.74,3.94,1.35,5.75,2,1.63.59,3,1.54,3.32,3.36.8,4.61,3.45,8.34,5.62,12.31a39.59,39.59,0,0,0,6.23,8.18c1.44,1.51,2.71,3.17,1.93,5.65-2,1.18-4.3.89-6.36.45-4.1-.86-8.27-.49-12.33-1.05-8.94-1.22-17.92-.68-26.86-1.21-1.1-.06-2.2,0-3.31,0a17,17,0,0,1-2.47.06c-5.67-.73-5.53-.9-5.08-6.07a46.09,46.09,0,0,1-6.11-.05c-3.51-.46-4.81-2.4-4-5.8a22.92,22.92,0,0,1,4.77-9.41c1.64-2,2.57-4.51,3.78-6.82.69-1.32,1.3-2.68,2-4.11-1.08-1.82-1.55-2.18-2.95-1.4a6.61,6.61,0,0,1-3.91.88,6.35,6.35,0,0,0-3.15.64c-2.45,1.26-4.59.63-6.54-.88-1-.79-2.41-1.42-2.56-3.25,1.2-.85,2.59-.44,3.9-.42,1.51,0,3,.22,4.54.22,1.36,0,2.72-.14,4.28-.24.35-1.17.66-2.19,1-3.2,4.11-2.69,3.71-1.74,7.38,2,1.88-.77,2.77-2.48,3.63-4.16a2.31,2.31,0,0,0,0-1.6,9.93,9.93,0,0,0-2.66-4.59c-1.24-1.09-2.45-2.2-3.86-3.47-3.33,1.22-6.66,2.41-10,3.67a5.11,5.11,0,0,0-3.27,3c-.88,2.4-2.82,2.79-5,2.69a2.18,2.18,0,0,1-.82-.08c-3.07-1.38-6-.16-8.83.68a12.36,12.36,0,0,1-7.7,0,5,5,0,0,0-5.64,1.28c-1.43,1.44-3.49,2.14-4.7,4a3.64,3.64,0,0,1-3.33,1.31c-1.23,0-2.47,0-3.83,0-1.44-4.37-5.18-6-9.08-7.64-.9-1.49-.18-2.95.45-4.26a3.18,3.18,0,0,1,3.81-1.83c3.29,1,6.19-.42,9.65-.86a16.56,16.56,0,0,0-1.27-2.29c-1-1.16-2-2.26-3.05-3.32a8,8,0,0,0-1.66-1.13,10.77,10.77,0,0,1-2.48-1.37c-2.71-2.77-6.08-3.55-9.75-3.61A13.61,13.61,0,0,1,1162,176a13.2,13.2,0,0,1-.49-2.28,1.31,1.31,0,0,1,1.25-1.39c2.22-.21,4.47-.47,5.86,1.93a2.64,2.64,0,0,0,2.52,1.14c2.34,0,4.69,0,7-.17a5.23,5.23,0,0,0,4.57-3.15c1.4-3.43,4.09-4.29,7.28-4.3,5.24,0,10.49.12,15.73.21.82,0,1.64.24,2.47.22a54.61,54.61,0,0,1,18.19,3.25c2.45.82,5.12,1,7.68,1.52,3.1.67,6.19,1.35,9.25,2.19a7.78,7.78,0,0,1,2.83,1.64,15.88,15.88,0,0,0,6.9,3.58,7.49,7.49,0,0,1,5.15,3.78c2.19,3.81,4.9,7.32,6.22,11.6.55,1.76,1,3.55,0,5.2C1263.18,203.25,1263.61,205.49,1263.94,208.08Z" transform="translate(-627.74)"/><path class="cls-1" d="M1402.93,209.87a29.38,29.38,0,0,1,.41,3.32c0,4.68-.07,9.36,0,14a61.51,61.51,0,0,1-1.31,13.13,21,21,0,0,1-1.79,5,5.66,5.66,0,0,1-2.07,1.89,5.55,5.55,0,0,1-2,.61,15.54,15.54,0,0,0-7.14,2.87,4.75,4.75,0,0,1-3.55.77c-1.78-.2-3.57-.22-5.34-.44a18.62,18.62,0,0,1-4-.85,93.3,93.3,0,0,0-9.8-3,15.71,15.71,0,0,1-7-4.24,82,82,0,0,0-8.34-6.64c-2-1.48-3.83-3.1-5.68-4.74a1.87,1.87,0,0,1-.33-2.29,5,5,0,0,1,1-1.31,33.72,33.72,0,0,1,11.26-8.13c4.07-1.66,8-3.62,12-5.58a14.36,14.36,0,0,1,7.16-1.5,52.26,52.26,0,0,0,10.3-.59,12.71,12.71,0,0,0,5.08-1.54,5.91,5.91,0,0,1,2.67-.94A57.35,57.35,0,0,1,1402.93,209.87Z" transform="translate(-627.74)"/><path class="cls-1" d="M1324.31,198.18c-.13.44-.46,1.48-.74,2.54a13,13,0,0,0-.65,3.17,6.21,6.21,0,0,1-1.91,4.41,14.21,14.21,0,0,1-3.06,2.75c-2.3,1.35-4,3.31-6,5a86.11,86.11,0,0,1-6.83,5.32c-1.64,1.21-2.88,1.26-4.45-.18a66.35,66.35,0,0,1-5-5.41c-1.35-1.54-2.61-3.17-3.9-4.76a13.85,13.85,0,0,1-2.25-2.94c-1.07-2.46-2.9-4.31-4.55-6.32-1.82-2.24-3.67-4.46-5.35-6.8-1.84-2.55-4.22-4.67-5.56-7.63-.86-1.89-1.85-3.73-1.89-5.81a24,24,0,0,0-2.29-8.7,29.09,29.09,0,0,1-1.21-3.51c-.37-1.39.57-2.39,2.07-2.27a6.29,6.29,0,0,1,1.61.31c4.13,1.5,8.25,3,12.37,4.56.51.19,1,.63,1.48.7,4.31.59,7.94,3,12,4.35,2.07.7,4.2,1.23,6.3,1.88,3.79,1.17,7.64,2.24,11.35,3.64a17.21,17.21,0,0,1,4.84,3.08,6.49,6.49,0,0,1,1.91,3.07c.74,2.63,1.19,5.34,1.75,8A13,13,0,0,1,1324.31,198.18Z" transform="translate(-627.74)"/><path class="cls-1" d="M1544.22,142.19c-2.74-1.51-5.53-.92-8.24-1.2-3-.31-6.26,2.37-6.29,5.3,0,3.4-1.74,5-4.52,6a21.51,21.51,0,0,0-2.54,1.36l-1.77,5.57a2.42,2.42,0,0,1-2.47,1.78,13.71,13.71,0,0,1-5.94-1.5,1.84,1.84,0,0,1-1.14-2,53.73,53.73,0,0,1,1.37-6.41,2.55,2.55,0,0,1,1.48-1.31,14.2,14.2,0,0,0,4.45-2.94c1.69-1.56,3.79-2.12,6-2.63,3-.71,3.72-3.22,1.56-5.46-.67-.68-1.5-1.19-2.23-1.82a20.33,20.33,0,0,1-2.41-2.22,1.78,1.78,0,0,1,.92-2.94c3.2-.75,6.44-1.37,9.61-2.24a48.28,48.28,0,0,0,5.76-2.18c3-1.24,7.12,1.15,7.35,4.37.2,2.74.25,5.49.2,8.24C1545.33,140.65,1544.68,141.32,1544.22,142.19Z" transform="translate(-627.74)"/><path class="cls-1" d="M1355.67,177.16c-1,.41-1.68.78-2.46,1.05a8.37,8.37,0,0,0-4.85,4.21,9.58,9.58,0,0,1-.88,1.39,1.66,1.66,0,0,1-2.78-.07c-1.28-1.62-2.62-3.2-3.77-4.9-2.3-3.38-5.55-5.71-8.78-8-1.11-.79-2.58-1.23-2.81-2.78a8.78,8.78,0,0,1,1.14-5.58,2.53,2.53,0,0,1,4.18-.15c.42.54.67,1.21,1.08,1.75,2,2.59,4.66,3.31,7.71,2.82a5.84,5.84,0,0,0,2-1.25,8.64,8.64,0,0,1,9.71-.59,4.44,4.44,0,0,1,2.54,4.38,16.18,16.18,0,0,1-.5,3.24C1356.84,174.08,1356.26,175.48,1355.67,177.16Z" transform="translate(-627.74)"/><path class="cls-1" d="M1639.56,229.67c.75.26,1.73.32,2.21.83a6.31,6.31,0,0,0,4.82,1.94,7.13,7.13,0,0,1,4.7,2.31c1.29,1.18,1.34,2.34.1,3.54-2,1.9-4,3.73-6,5.6-1.3,1.22-2.51,2.54-3.89,3.67a2,2,0,0,1-3.52-1.12,23.15,23.15,0,0,1-.42-3.24,2.86,2.86,0,0,0-2.89-2.9c-1-.12-1.92-.05-2.88-.11a9.92,9.92,0,0,1-2-.27,4.69,4.69,0,0,1-3.19-4.36,5,5,0,0,1,5-4,9.94,9.94,0,0,0,4.76-1.07A21.71,21.71,0,0,1,1639.56,229.67Z" transform="translate(-627.74)"/><path class="cls-1" d="M1631.36,248.62a33,33,0,0,0,0,3.73c.41,3.42-3.7,4.69-5.81,3.48-1.69-1-3.34-2.16-3.89-4.06-.9-3.12-2.81-5.67-4.5-8.3a40.74,40.74,0,0,0-5.15-5.79,8.69,8.69,0,0,1-2.17-6.06c0-.83.17-1.77,1.08-2a2.25,2.25,0,0,1,1.88.31,6.54,6.54,0,0,0,5.26,1.84c2.14-.12,3.32,1.11,3.79,3.07a13.37,13.37,0,0,0,2.68,5.93,5.59,5.59,0,0,1,.91,3.08c.18,2.24,1.19,3.57,3.45,4A16.11,16.11,0,0,1,1631.36,248.62Z" transform="translate(-627.74)"/><path class="cls-1" d="M1405.81,186.58a13,13,0,0,1-2,1.77,3.74,3.74,0,0,0-1.82,3.45c0,.83,0,1.66-.06,2.48-.24,2.37-1.53,3.85-3.88,4.05-2.6.21-5.22.25-7.83.2a2,2,0,0,1-2.16-2.4c.31-3,1.4-5.54,4.06-7.26,1.38-.89,2.63-2,3.94-3,3-2.3,6.09-2.11,9.22-.28C1405.49,185.75,1405.56,186.1,1405.81,186.58Z" transform="translate(-627.74)"/><path class="cls-1" d="M1365.19,188.37c1.88.44,3.64.75,5.33,1.27a2.35,2.35,0,0,1,1.73,2.53c-.09,1.17-.53,2.28-1.76,2.53-3.06.6-5.72,1.65-7.38,4.57a5,5,0,0,1-2.41,1.54c-2.59,1.13-4.6.31-6.11-2.39-1.27-2.27-.68-4.51,1.69-6a42.07,42.07,0,0,1,4.67-2.64A36.23,36.23,0,0,1,1365.19,188.37Z" transform="translate(-627.74)"/><path class="cls-1" d="M1443.47,187.06c.18-5.1-.41-5.18,5.47-5.8a5.6,5.6,0,0,1,5.33,2.46,2.16,2.16,0,0,1-.45,3.26,7.69,7.69,0,0,1-4.91,1.9C1447,188.87,1445,188.81,1443.47,187.06Z" transform="translate(-627.74)"/><path class="cls-1" d="M1671.88,210.12c-.75,1.7-1.13,3.8-2.36,5.12-2.24,2.41-2.43,5.85-4.67,8.15-.17.18-.49.23-1,.43-.23-.39-.69-.81-.69-1.24a19,19,0,0,1,.26-3.69c.54-3,2.25-5.6,3.47-8.36a3,3,0,0,1,2.33-1.55C1670,208.82,1670.21,208.9,1671.88,210.12Z" transform="translate(-627.74)"/><path class="cls-1" d="M1292.11,164.12a5.15,5.15,0,0,1-5.1.47c-2.93-1.41-5.79-3-7.91-5.76.38-.42.59-.9.89-1,4.24-1,9.33,1,11.54,4.51A7.9,7.9,0,0,1,1292.11,164.12Z" transform="translate(-627.74)"/><path class="cls-1" d="M1680.68,205.35l4,3.1c0,.55,0,.92-.09,1.05-1.75,1.69-3.47,3.43-5.35,5a13,13,0,0,1-3.27,1.65,1.19,1.19,0,0,1-1.13-.18,2.4,2.4,0,0,1-.37-1.46,3.75,3.75,0,0,1,.59-1.51c1.43-2.32,2.88-4.61,4.35-6.89C1679.58,205.87,1679.9,205.8,1680.68,205.35Z" transform="translate(-627.74)"/><path class="cls-1" d="M1634.52,202.07a1.2,1.2,0,0,1-1.56.92,19.31,19.31,0,0,0-5.18-1.05,18.94,18.94,0,0,0-6.49.51,11.47,11.47,0,0,1-3.22.24,1.29,1.29,0,0,1-.88-.71,1.19,1.19,0,0,1,.19-1.09c2.74-2.45,6-3.57,9.43-2.07a17.61,17.61,0,0,0,6.25,1.65A1.43,1.43,0,0,1,1634.52,202.07Z" transform="translate(-627.74)"/><path class="cls-1" d="M1226.28,165a11,11,0,0,1,7.44-1,18.42,18.42,0,0,1,4.23,1.4c.35.14.57.89.59,1.38,0,.25-.51.72-.84.76a21,21,0,0,1-9.7-.71C1227.38,166.66,1227,165.81,1226.28,165Z" transform="translate(-627.74)"/><path class="cls-1" d="M1590.7,172.89c-3.22.58-5.84-.1-7.93-2.48a1.62,1.62,0,0,1,.68-2.66,5.9,5.9,0,0,1,2.79-.17,14,14,0,0,1,3.37,1.47C1591,169.82,1591.41,171,1590.7,172.89Z" transform="translate(-627.74)"/><path class="cls-1" d="M1425.84,123.91c-1.7,2.57-4.22,2.93-8.47,1.48-.32-1.18-.68-2.41.56-3.29a4,4,0,0,1,4.25-.47C1423.38,122.22,1424.46,123,1425.84,123.91Z" transform="translate(-627.74)"/><path class="cls-1" d="M1518.91,180.37c0,.13,0,.27,0,.41,0,1.22.21,2.58-1.11,3.27-1.55.81-2.94.16-4.14-.86a8.52,8.52,0,0,1-1.82-2.11,1.5,1.5,0,0,1,1.73-1.94,9.85,9.85,0,0,0,5.48,1.35Z" transform="translate(-627.74)"/><path class="cls-1" d="M1488.74,147.78a48.72,48.72,0,0,1-8.85.89c.73-2,2.34-3.51,4-3.7a18,18,0,0,1,3.66.11,2.23,2.23,0,0,1,1,.62,1.15,1.15,0,0,1,.33.72A8.07,8.07,0,0,1,1488.74,147.78Z" transform="translate(-627.74)"/><path class="cls-1" d="M1068,226.46l-11.77-.67c-.56-1.36.16-2,1.08-2.41s2.23-1,3.08-.11a5,5,0,0,0,5.17,1.54,3,3,0,0,1,1.54.5C1067.32,225.41,1067.43,225.7,1068,226.46Z" transform="translate(-627.74)"/><path class="cls-1" d="M1367,178.23c.53-1.6,1.32-2.51,2.71-2.56,1.61,0,2.67,1.05,3.78,3.65C1370.52,180.8,1369.9,180.7,1367,178.23Z" transform="translate(-627.74)"/><path class="cls-1" d="M1574.7,165.17a7.77,7.77,0,0,1-1.57,2.06,2.7,2.7,0,0,1-3.11,0c-1-.68-1.09-2.62-.16-3.73a2.92,2.92,0,0,1,4.35.2A7.58,7.58,0,0,1,1574.7,165.17Z" transform="translate(-627.74)"/><path class="cls-1" d="M1478.68,184.92c.48-1.37,1.69-1.73,2.9-1.94a3.29,3.29,0,0,1,3.42,1.31,4.79,4.79,0,0,1-4.34,2.45C1480.07,186.74,1479.71,186.41,1478.68,184.92Z" transform="translate(-627.74)"/><path class="cls-1" d="M1311.78,156.7c2,.67,3.6,1.33,4.33,3.15a1.44,1.44,0,0,1-.69,1.22,5.09,5.09,0,0,1-4.55-1.21,2.19,2.19,0,0,1-.38-1.83C1310.65,157.5,1311.35,157.12,1311.78,156.7Z" transform="translate(-627.74)"/><path class="cls-1" d="M1256,164.25l-6.14,1.23c-.66-1.51-.65-2.24.09-2.5C1251.92,162.31,1253.86,162.05,1256,164.25Z" transform="translate(-627.74)"/><path class="cls-1" d="M1256.06,257c-3.42,1.39-3.75,1.39-6.22.21C1251.71,256.34,1253.38,256.58,1256.06,257Z" transform="translate(-627.74)"/><path class="cls-1" d="M1563.49,136.07c-.16.42-.19,1-.44,1.1a7.4,7.4,0,0,1-2.18.74c-.23,0-.76-.4-.8-.67a2,2,0,0,1,2.65-2C1563,135.35,1563.22,135.76,1563.49,136.07Z" transform="translate(-627.74)"/><path class="cls-1" d="M1502.93,180.89a7.38,7.38,0,0,1,1,1.92,1.28,1.28,0,0,1-1.34,1.57c-.87,0-1.62-.76-1.31-1.55C1501.53,182.2,1502.18,181.74,1502.93,180.89Z" transform="translate(-627.74)"/><path class="cls-1" d="M1554.85,140.28c-.58.78-.8,1.31-1.19,1.52a2,2,0,0,1-1.49.15c-.39-.16-.66-.73-.83-1.18,0-.11.49-.62.79-.64A23.52,23.52,0,0,1,1554.85,140.28Z" transform="translate(-627.74)"/><path class="cls-1" d="M1141.25,192.19h4c-.21,1.91-.73,2.41-1.73,1.8A26.45,26.45,0,0,1,1141.25,192.19Z" transform="translate(-627.74)"/><path class="cls-1" d="M1391.16,118c.28.29.9.65,1.09,1.17a1.22,1.22,0,0,1-.81,1.64,1.37,1.37,0,0,1-1.72-1.27C1389.66,118.74,1390.12,118.11,1391.16,118Z" transform="translate(-627.74)"/><path class="cls-1" d="M1311.75,168.05c.68-.39,1.06-.76,1.47-.8.77-.07,1.19.48,1.28,1.19s-.74,1.38-1.28,1.09S1312.39,168.72,1311.75,168.05Z" transform="translate(-627.74)"/><path class="cls-1" d="M1184.18,225.25c-.52.57-.7.95-1,1.05-.66.24-1.36.19-1.66-.56-.07-.17.36-.78.59-.8A9.87,9.87,0,0,1,1184.18,225.25Z" transform="translate(-627.74)"/><path class="cls-1" d="M1214.64,208.75c-.18.11-.38.32-.53.29s-.37-.28-.56-.43c.17-.11.37-.35.5-.31S1214.43,208.57,1214.64,208.75Z" transform="translate(-627.74)"/><path class="cls-1" d="M1120.09,210.12l-.6.32c-.09-.22-.27-.45-.25-.65s.35-.21.55-.31Z" transform="translate(-627.74)"/><path class="cls-1" d="M1130.81,175.86c-.09,0-.18.13-.26.12s-.13-.11-.2-.18c.08-.05.17-.13.25-.12S1130.74,175.79,1130.81,175.86Z" transform="translate(-627.74)"/><rect class="cls-1" y="189.36" width="9.19" height="9.19"/><rect class="cls-1" y="335.4" width="9.19" height="9.19"/></svg>