<svg xmlns="http://www.w3.org/2000/svg" viewBox="0 0 1073.29 1075.09"><defs><style>.cls-1,.cls-3{fill:#1d1d1b;}.cls-1,.cls-2{stroke:#1d1d1b;stroke-miterlimit:10;}.cls-2{fill:#9d3a8e;}.cls-3{font-size:324.01px;font-family:BlocExtCondW08-Regular;}</style></defs><g id="Calque_2" data-name="Calque 2"><g id="Calque_1-2" data-name="Calque 1"><circle class="cls-1" cx="536.65" cy="538.44" r="536.15"/><path class="cls-2" d="M328.32,191.2c1.2-.89.09-3.06-2.37-5-2.1,2.54-2.55,4.55-1,5.3A3.77,3.77,0,0,0,328.32,191.2Z"/><path class="cls-2" d="M324.1,336.84a4.5,4.5,0,0,0,.82,0c5,0,10-.15,15-.41a6.53,6.53,0,0,0,6.47-5.77,30.39,30.39,0,0,0,.51-5.63,8.4,8.4,0,0,1,3.55-7.34,43.15,43.15,0,0,0,4.3-3.66,23.51,23.51,0,0,0-2.76-2.12c-4.9-2.63-9.88-3.14-14.66.15-3.57,2.44-7,5.16-10.42,7.79-4.23,3.19-5.75,7.7-6.05,12.75A3.77,3.77,0,0,0,324.1,336.84Z"/><path class="cls-2" d="M243.09,399.67l1.2,1,25.3,20.65a35.12,35.12,0,0,0,13.15,6.51c3.75,1,7.36,2,11,3.31a63,63,0,0,0,22.92,3.75,24,24,0,0,0,6.8-1.88c4.35-1.52,8.58-3.54,13-4.75a11.25,11.25,0,0,0,8.22-6.55c2.91-6.66,3.49-13.83,3.94-20.87.73-11.59.72-23.21.88-34.83,0-2.76-.43-5.67-.67-8.86-5.33,0-10.29-.19-15.21.09a31.25,31.25,0,0,0-6.64,1.88,45.39,45.39,0,0,1-8.15,2.33c-6.5.66-13,.94-19.54,1.2A36.83,36.83,0,0,0,284.69,366c-7.51,3.59-15,7.06-22.53,10.61a60.66,60.66,0,0,0-19.62,14.45C239.24,394.85,239.37,396.5,243.09,399.67Z"/><path class="cls-2" d="M518.26,419.27C533.47,415.65,549,413,563.9,408.5c14.61-4.43,29-9.39,43.84-13.26a222.88,222.88,0,0,1,35.67-7.06c9.53-.84,19-2.3,28.51-3.64a13.71,13.71,0,0,0,9.6-6.46q14.64-21.57,29.45-43a13.19,13.19,0,0,1,3.94-3.61,26.84,26.84,0,0,0,9.05-8.9c2.8-4.54,2.42-6.53-1.88-9.93-2.79-2.27-5.63-4.54-8.18-7a20.36,20.36,0,0,0-15-5.84,29,29,0,0,1-10.17-1.35,153,153,0,0,1-27-12.22,29.3,29.3,0,0,0-7.26-2.87c-2.67-.73-5.45-.94-8.19-1.41-2.08-.35-3.9-1-4.43-3.47-.71-3.42-1.5-4-5-4.19a18.11,18.11,0,0,1-12.13-5.2c-5-4.69-8.26-4.58-13.42,0a8.45,8.45,0,0,1-4.75,1.88c-4.41.3-8.85.22-13.28.15-4.8,0-9.59-.39-14.38-.49a8.53,8.53,0,0,0-8.84,5.33,12.55,12.55,0,0,1-10.12,8.19c-4.07.75-5,4.07-2.21,7.08a32,32,0,0,1,6.17,11.6,43,43,0,0,1-8-1.88c-1.43-.47-2.76-1.16-3.87.28a3.32,3.32,0,0,0,.13,4.54,22.09,22.09,0,0,0,5.18,4.21,4.77,4.77,0,0,0,6.54-1.66,4.82,4.82,0,0,0,.65-2.83,20.54,20.54,0,0,0,.06-2.14,7.06,7.06,0,0,1,1.13-.22c6.6,0,13.14.11,19.8.37a6.49,6.49,0,0,1,5.88,4.28,6.64,6.64,0,0,1-1,7,20.18,20.18,0,0,1-10.76,7.38,11.61,11.61,0,0,0-8.24,7.62,25.42,25.42,0,0,1-8.76,11.69c-5.11,3.93-6.56,3.76-9.73-1.87a8.89,8.89,0,0,0-6.46-4.75A31.52,31.52,0,0,1,533.66,329a14,14,0,0,0-6.52-2.72c-7.51-.52-15-1.26-22.39,1.88a12.9,12.9,0,0,1-12.11-1,6.1,6.1,0,0,0-6.74.14,12,12,0,0,1-5.63,1.44,26.73,26.73,0,0,1-7.31-1.24,82.26,82.26,0,0,0-32.08-2.21,37.4,37.4,0,0,0-17.4,5.44,7,7,0,0,0-3.29,5.33c-.58,5.28-2.44,7.17-7.68,8.11a7.22,7.22,0,0,0-5.63,4.08A24.59,24.59,0,0,0,404,359.87q.9,18.54,1.88,37c.18,3.63.9,4.49,4.52,5.35a15.38,15.38,0,0,1,9.26,5.92c3.08,4.26,6.21,8.48,9.06,12.86a8.94,8.94,0,0,0,9.8,4.28,20.51,20.51,0,0,1,6.24-.66,154.08,154.08,0,0,1,17.79,3.51,33.11,33.11,0,0,0,17.5.49Q499.13,423.76,518.26,419.27Z"/><path class="cls-2" d="M443.62,315.18a4.44,4.44,0,0,0,1-5.51,10.69,10.69,0,0,0-10.4-5.25c-1.49.2-3,.45-4.43.69-4.94.74-5.6,1.5-5.6,6.67v.05c0,4.06.32,4.81,2.56,5.84A15.85,15.85,0,0,0,443.62,315.18Z"/><path class="cls-2" d="M490,311.48c3,4.8,7.51,4.35,11-1.22h.06C497.29,306,492.6,306.5,490,311.48Z"/><path class="cls-2" d="M378.39,201.54a38.36,38.36,0,0,0,6.25.49,6.74,6.74,0,0,0,6.66-4.51l-.07.12c-2.59-1.49-5-3.06-7.51-4.21a6.81,6.81,0,0,0-7.19,1,4,4,0,0,0-1.39,5A5,5,0,0,0,378.39,201.54Z"/><path class="cls-2" d="M289.1,302.86a31.75,31.75,0,0,0,3.75-1.88,1.33,1.33,0,0,0,.46-1.09,7.52,7.52,0,0,0-7.23-5.89c-2.18.22-4.88,3.75-3.76,5.12A8.61,8.61,0,0,0,289.1,302.86Z"/><path class="cls-2" d="M867,350.15a1.88,1.88,0,0,0-2.66,0,1.75,1.75,0,0,0-.35.46c-.88,1.22-1.69,2.48-2.49,3.76-2.2,3.47-4.45,6.9-6.57,10.43a2.84,2.84,0,0,0,2.3,4.64A10.79,10.79,0,0,0,860.5,368c4.15-3.4,8.18-7,12.13-10.57,1.16-1.07.56-2.38-.57-3.28C870.39,352.82,868.63,351.56,867,350.15Z"/><path class="cls-2" d="M837.05,382.2a2.67,2.67,0,0,0,.88-1c3.46-6.53,6.93-13.14,10.27-19.66.58-1.16,1.88-2.59,0-4A5.16,5.16,0,0,0,842,357a5.94,5.94,0,0,0-1.69,1.77c-2.63,5-5.63,9.89-6.66,15.6a18.31,18.31,0,0,0,.41,9.35v.05C835.14,383.19,836.11,382.74,837.05,382.2Z"/><path class="cls-2" d="M202,135a33.44,33.44,0,0,0,8.81,1.64c8,.3,14.68-3.16,20.65-8.11a19,19,0,0,1,10.34-4.55,17.1,17.1,0,0,0,9-3.75,12.92,12.92,0,0,1,14.34-1.69,13.89,13.89,0,0,0,11.74.21A102.63,102.63,0,0,1,309.58,111c12-.77,24.13-1.2,36.18-1.16,11.66,0,23.45-.36,34.56,4.29,6,.19,12.09.46,18.15.59,2.67,0,5.45.2,7.51-2A9.1,9.1,0,0,1,413.1,110c12,.19,24,.3,36,.51a13.61,13.61,0,0,0,10.65-4.43,14.82,14.82,0,0,1,12.33-4.77,29,29,0,0,0,7.38-.35,85.1,85.1,0,0,1,20.16-1.11A54.85,54.85,0,0,0,512.54,99a46.7,46.7,0,0,1,10.87-1.15,23.88,23.88,0,0,1,11.77,3.27c3.47,2,7.28,3.47,10.89,5.3,2.17,1.1,4.24,2.44,6.36,3.75.43.24.92.62,1.35.58,8.68-.39,17.37-.58,25.72-3.55a41.49,41.49,0,0,1,11-2.34,72.86,72.86,0,0,0,17.29-3.46,36.08,36.08,0,0,1,9-1.74c6.89-.34,13.8-.28,20.65-.4a45.87,45.87,0,0,1,18.77,3.76,14.21,14.21,0,0,0,10.74.15,87.61,87.61,0,0,1,9.39-2.86,16.78,16.78,0,0,1,15.33,3.14,109.66,109.66,0,0,0,20.86,14,16.63,16.63,0,0,1,3.38,2.58,13.38,13.38,0,0,1,4.32,8.89c.24,2.69.43,5.39.65,8.08a13.13,13.13,0,0,1-7.24,13.55c-4.28,2.35-8.6,4.62-12.79,7.1a5,5,0,0,0-2.41,6.58l.07.14c.92,2.85,1.63,5.8,2.76,8.56a134.6,134.6,0,0,0,6.59,14.72c2.79,5,7.64,7.19,13.34,7.51,4.06.16,8.09.3,12.13.6a63.46,63.46,0,0,1,32.48,10.81,30.9,30.9,0,0,0,7.86,3.08c4.3,1.44,8.71,2.63,13,4.19,7.86,2.85,15.58,6.08,23.5,8.76,6.08,2.07,12.5.87,18.77.9,3.76,0,4.49-.63,5.77-4.35,2.17-6.33,5.63-9.26,12.29-9.16,10.91.15,21.44-2.27,32.12-3.76,5.33-.73,10.78-2.23,16-1.74,7.71.71,15.28,2.87,22.9,4.5a3.46,3.46,0,0,1,3,3.76,88.3,88.3,0,0,1-.52,10.53c-.87,5.82-3.06,11-8.77,13.87a10.82,10.82,0,0,0-1.65,1.52c1.74.27,3.13.51,4.52.64a40.92,40.92,0,0,1,19.32,6.16,97.09,97.09,0,0,0,10.57,5.37,103.69,103.69,0,0,1,9.39,4.8c5.5,3.51,10.75,7.4,16.2,11,6.63,4.35,10.38,10.17,10.27,18.3-.1,5.31.94,10.57,4.5,14.53,4.64,5.16,9.86,9.84,15,14.55a4.76,4.76,0,0,0,6.74,0l0,0a32.53,32.53,0,0,0,5.48-6.12,10.55,10.55,0,0,1,6.7-5.24l.53-.1C932.85,123.8,749.73.5,537.81.5A532.63,532.63,0,0,0,184.25,134.09,30.1,30.1,0,0,1,202,135Z"/><path class="cls-2" d="M278.89,317.8l-.1.32h-.88a32.81,32.81,0,0,0-19,9.39,6.3,6.3,0,0,0-1.41,6.91c1.24,3.75,3.61,6.77,7.72,7.3a10.1,10.1,0,0,0,9.85-4.58,16.43,16.43,0,0,1,10-6.72,24.44,24.44,0,0,0,3.66-1.09,4.23,4.23,0,0,0,2.63-4.73c-.17-1.33-.85-3.32-1.88-3.76a108.78,108.78,0,0,0-10.64-3.09Z"/><path class="cls-2" d="M733.76,397.76A16.08,16.08,0,0,0,739,410.9a67.47,67.47,0,0,1,16.9,25.23,12.14,12.14,0,0,0,8.31,7.62c5.63,1.62,10.52-1.87,9.82-7.51a12.35,12.35,0,0,1-.15-1.69h0c-.17-5-.15-5.06-4.54-6.23a8.11,8.11,0,0,1-6.33-7.06,30.13,30.13,0,0,0-1.7-5.8c-1.66-4.09-3.55-8.09-5.2-12.2a7.07,7.07,0,0,0-6.16-4.81,23.11,23.11,0,0,1-11-3.51C736.37,393.2,734,394.68,733.76,397.76Z"/><path class="cls-2" d="M785.14,419.32v.29c.27,1.78.42,3.57.79,5.33,1.05,4.85,3.76,5.63,7.51,2.46,2.65-2.31,5.18-4.77,7.74-7.19,3.37-3.19,6.79-6.34,10.1-9.63,2-2,2.21-3.49.82-5.35a12.39,12.39,0,0,0-9-5.35,18.09,18.09,0,0,1-9.57-3.44,22.83,22.83,0,0,0-3.93-1.95h0c-.81.11-1,.11-1.24.17-5.92,1.35-11.85,2.57-17.71,4.09a7.52,7.52,0,0,0-5.63,6.18,6.88,6.88,0,0,0,3.19,7.19,16.24,16.24,0,0,0,5.63,2.05q3,.34,6.05.39A5,5,0,0,1,785.14,419.32Z"/><path class="cls-2" d="M751.26,345.14l.28-.49,1.33-.11c7.89-.79,15.79-2,23.64.41,1.33.41,2.81.21,3.21-1.56s-.75-2.57-2.27-3c-4.77-1.34-9.5-2.69-14.27-4a15,15,0,0,0-13.5,3.11c-1.24.92-2.66,2.05-1.73,3.65C748.54,344.14,750.13,344.5,751.26,345.14Z"/><path class="cls-2" d="M259.59,274.19a16.31,16.31,0,0,0-18,1.22A12.52,12.52,0,0,1,224,273a12.75,12.75,0,0,1-.83-1.24,26.9,26.9,0,0,0-1.77-2.59,4.4,4.4,0,0,0-6.1-1.19,4.45,4.45,0,0,0-1.18,1.19c-2.16,2.46-2.54,5.48-2.82,9.5-.32,2.23,1.47,4.11,3.89,5.63A65.76,65.76,0,0,1,236,304.19a33.91,33.91,0,0,0,3.75,4.53c2.67,3,4.66,2.81,6.61-.72a21.75,21.75,0,0,1,11.51-9.89,7.31,7.31,0,0,0,3.55-3.64,80.38,80.38,0,0,0,2.89-9.2A8.9,8.9,0,0,0,259.59,274.19Z"/><path class="cls-2" d="M506.76,242.79c1.55-.36,2.25-1.43,1.42-2.82a6.43,6.43,0,0,0-2.7-2.74c-5.14-2.29-11.66,1.24-13.18,7.08l-.07.11,11.86-1.26C505,243.08,505.87,243,506.76,242.79Z"/><path class="cls-2" d="M186.05,266c.49-.77-.16-2.83-1-3.75a14.58,14.58,0,0,0-4.47-2.88c-2.1-.95-4.36.7-4.36,3.78a7.93,7.93,0,0,0,1.56,2.08,31.34,31.34,0,0,0,3.94,2.05A3.23,3.23,0,0,0,186.05,266Z"/><path class="cls-2" d="M179.37,280.35c.81.81,1.5,1.88,2.46,2.25.43.15,1.41-1,2.83-2-1.46-1-2.27-1.87-3.06-1.87S180.12,279.79,179.37,280.35Z"/><path class="cls-2" d="M72.8,445.29H64.18C67.78,448.23,70.76,448.25,72.8,445.29Z"/><path class="cls-2" d="M72.77,271.17c-.49.86-1,1.71-1.46,2.57l3.27-.69A8.1,8.1,0,0,0,72.77,271.17Z"/><path class="cls-2" d="M168.39,378q13.44-10.42,26.39-21.4a13.65,13.65,0,0,0,4.13-6.27c1.56-5.31,2.48-10.8,3.63-16.22a3.43,3.43,0,0,0-.12-1.56q-1.87-7.52-3.75-14.83a9,9,0,0,0-4.41-6,94.56,94.56,0,0,0-14.06-6.93c-24.6-8.33-49.3-16.1-73.5-25.64a30.32,30.32,0,0,0-4-1c-3.49,0-4.88,1.63-4.23,4.35.36,1.45,1,2.84,1.36,4.28,1.67,6,3.64,11.89,4.88,17.93a41.26,41.26,0,0,0,7.83,17.8c5.76,7.3,11.65,14.49,17.3,21.89,8.42,11,16,22.66,26,32.46C161.1,382,162.55,382.46,168.39,378Z"/><path class="cls-2" d="M1034.45,387.47c1.18-2.65,2.29-5.09,3.34-7.51a3.76,3.76,0,0,0-1.71-4.64c-1.7-1.29-3.41-2.55-5.72-1.33q-7.51,4-2.55,10.8a4.05,4.05,0,0,0,.52.73c1.13,1,1,1.88,0,3a46.46,46.46,0,0,1-19.75,13.67,4.7,4.7,0,0,1-2.19.37c-4.89-.64-9.77-1.39-14.59-2.08-.19-1.32-.3-2.37-.51-3.4-.67-3.14-1.74-3.53-4.2-1.48a12.88,12.88,0,0,1-7.74,3.24c-3.06.14-6.12,0-9.2,0-4.18,0-5.46.92-6.76,4.85-.86,2.55-1.63,5.1-2.44,7.66a5.89,5.89,0,0,1-.84,0,41,41,0,0,1-20.56-12.26,2.47,2.47,0,0,1-.13-2.12c.66-1.69,1.56-3.29,2.35-4.92l-.49-.6c-1.41.47-2.87.86-4.22,1.46a11.48,11.48,0,0,1-12.49-1.33c-2.38-1.88-4.79-3.6-7.24-5.33a27.56,27.56,0,0,1-8.26-9.63,8.65,8.65,0,0,0-4.6-4.17,28.6,28.6,0,0,0-10.86-.69c-6.72,1.1-12.22,5.05-17.62,9a23.46,23.46,0,0,1-4.56,2.8,90.75,90.75,0,0,0-35.67,27,192.23,192.23,0,0,1-20.11,21.81,27.3,27.3,0,0,0-8.58,16.18c-.68,4.15-1.16,8.32-1.88,12.45a13.4,13.4,0,0,1-4.16,7.79,49.23,49.23,0,0,0-5,5.41c-8.28,10.76-19.65,16.67-32.21,20.65a9.51,9.51,0,0,1-4.68,0c-6.94-1.52-13.95-2.89-20.74-4.9a36.21,36.21,0,0,1-19.19-13.87c-6.49-9-12.82-18.12-19.24-27.17-4.64-6.55-10.76-10.87-18.9-11.64-4.32-.41-8.68-.3-13-.37a31.45,31.45,0,0,0-3.76.17c-17,1.74-31.91,9.23-46.67,17.23a11.43,11.43,0,0,0-5.91,9.29c-.41,3.19-1,6.37-1.58,9.52a15.09,15.09,0,0,1-4.49,8.15c-4.63,4.54-5,7.73-1.69,13.42.91,1.54,1.88,3.08,2.82,4.6a44.48,44.48,0,0,0,25,19.51c9,2.77,17.95,5.87,27,8.72a7,7,0,0,1,4.84,4.85,9.28,9.28,0,0,1-2.51.79,11.25,11.25,0,0,0-9.75,5.82,23.6,23.6,0,0,1-4.18,4.35,12.3,12.3,0,0,1-8.4,3.4,155.72,155.72,0,0,1-17.25-1.2c-5.46-.77-10.81-2.42-16.26-3.44-3.6-.67-7.36-.56-10.9-1.35-10.69-2.36-17.93-9.27-23.32-18.42-1.88-3-3.42-6.15-5.2-9.19a5.4,5.4,0,0,0-7.09-2.86l-.1,0a56.47,56.47,0,0,0-7.32,2.83c-9.59,4.64-19.24,9.17-28.63,14.18a64.89,64.89,0,0,1-34,8,6.36,6.36,0,0,0-6.48,4.64,66.46,66.46,0,0,0-2.06,11.47c-.42,6.49-.43,13.14-.38,19.56,0,5.84-.51,11.88.81,17.46a66.14,66.14,0,0,1,1.95,19.37h2.07a18.43,18.43,0,0,1-.14,2.82c-.75,9-1.65,18.07-2.17,27.12a20.19,20.19,0,0,0,1.16,8.51A227.41,227.41,0,0,1,498.74,709c1.24,11.64,2.93,23.22,4.86,34.75a251.47,251.47,0,0,1,3.64,27.62c.75,14.3,1.88,28.59,2.95,42.87.58,7.68,1.65,15.3,2.84,22.94,1.07,6.89.24,14.05.41,21.09.41,17,1,34,1.35,51q.8,33.79,1.37,67.72c.11,6.3-.3,12.61-.22,18.9.16,19.13.6,38.26.67,57.39,0,5.38,0,10.75-.06,16.13q10.58.4,21.26.42c295.29,0,534.66-239.38,534.66-534.67a535.18,535.18,0,0,0-19.32-142.92C1047.12,390.09,1041,388.11,1034.45,387.47Z"/><path class="cls-2" d="M251.12,974.21c.51-10.18.86-20.37,1.33-30.57.34-7.79.34-15.61,1.26-23.35a297.7,297.7,0,0,0,2.78-34.92c0-14.55.34-29.1.92-43.64.34-8.66,1.78-17.3,2.12-26,.43-11.26.38-22.36.3-33.53,0-7-.84-13.87.64-20.84a86.88,86.88,0,0,0,1.88-14.9c.28-7.12,0-14.25-.12-21.37a22.46,22.46,0,0,0-1.16-6.12,19.25,19.25,0,0,1-.64-8.63,93,93,0,0,0,1.47-14.51c-.17-17.07-2.73-33.93-5.26-50.69-1.24-8.19-2.7-16.3-1-24.56.9-4.35,2-8.67,3-12.8h-.86c.35-2.46-1.54-3.44-3.1-4.51A66,66,0,0,1,239,588.63a52.45,52.45,0,0,0-10.61-10.22,48.76,48.76,0,0,1-20-35.48,8,8,0,0,0-6.2-7.86,7.11,7.11,0,0,1-3.45-2.31c-2.39-3.06-4.62-6.27-6.76-9.54a35.81,35.81,0,0,1-5-12.45c-.92-4.3-2.2-8.52-3.53-12.74a5,5,0,0,0-5-3.57,16.71,16.71,0,0,1-11.88-5.33c-5-4.81-10-9.56-14.8-14.5a10.58,10.58,0,0,0-10-3.37c-6.73,1.18-13.42,2.55-20.18,3.51-5.63.78-11.26.48-16.74,1.76a201.18,201.18,0,0,0-24.13,7.4,28.66,28.66,0,0,1-21.83-.19c-9.52-3.76-19.15-7.51-29-10.44A49.89,49.89,0,0,1,8.3,460.67a538.25,538.25,0,0,0-5.15,74.49c0,188.47,97.51,354.15,244.83,449.37A20.61,20.61,0,0,0,251.12,974.21Z"/><path class="cls-2" d="M124.38,260.34a12,12,0,0,0-2.87.19c-1.05.35-2.57.9-2.8,1.69a3.76,3.76,0,0,0,1.34,3,72.55,72.55,0,0,0,9,6.72,18.41,18.41,0,0,0,7.34,2.46c1.88.17,3.76-1.07,5.63-1.69a17.86,17.86,0,0,0-2.12-5.2A20.62,20.62,0,0,0,124.38,260.34Z"/><path class="cls-2" d="M575.28,235.18A35.12,35.12,0,0,0,560.5,243a6.84,6.84,0,0,1-2.31,1.37,9.38,9.38,0,0,0-6.28,7c-.68,2.69-1.09,5.45-1.56,8.17a3.75,3.75,0,0,0,2.57,4.64,2.49,2.49,0,0,0,.37.09c3.16.92,6.37,1.75,9.58,2.42a4.3,4.3,0,0,0,5.37-2.85,2,2,0,0,0,.07-.26,54.27,54.27,0,0,0,1.88-6.22,8.7,8.7,0,0,1,6.23-6.74,11.45,11.45,0,0,0,8.43-10.28c.92-7.66,5-11.08,12.77-10.59,4.93.41,9.84.84,14.87,1.23a10,10,0,0,0,.63-2.15c.21-4.77.19-9.58.55-14.33.56-7.22-6.78-12.63-14.16-10.51-9.12,2.63-18.22,5.35-27.35,8-4.3,1.26-5,3.75-1.78,7,2.36,2.29,5,4.34,7.41,6.55a5.81,5.81,0,0,1,2.22,6C579.39,233.83,577.4,234.64,575.28,235.18Z"/><path class="cls-2" d="M129.72,414.2a3.46,3.46,0,0,0,3.48-3.43,3.5,3.5,0,0,0-.41-1.64,20.43,20.43,0,0,0-3.77-6.51,109.43,109.43,0,0,1-18.77-28.91,55.12,55.12,0,0,1-3-8.65,9.57,9.57,0,0,0-6.44-6.91c-2.85-1-5.63-2.09-8.5-2.95a3.37,3.37,0,0,1-2.48-2.82,15.25,15.25,0,0,1,.86-10.53,11.71,11.71,0,0,0,.17-9.76A112.69,112.69,0,0,0,79,309.34,18.38,18.38,0,0,0,70,302.65c-3.8-1.55-7.42-3.55-11.09-5.4A530.7,530.7,0,0,0,20.75,398.61c2.09.08,4.19,0,6.39,0-.13,1.73-.28,3.08-.32,4.41-.09,4,.92,5.43,4.81,6a90.82,90.82,0,0,0,11.17,1c9.38.22,18.64-.1,27.91.47,17.37,1,34.69,2.59,52.06,3.87A33,33,0,0,0,129.72,414.2Z"/><path class="cls-2" d="M532.34,309.51a2.39,2.39,0,0,0,3.34.45,1.64,1.64,0,0,0,.25-.21c1.26-1,.88-2.76-1.34-5.45C531.66,306.66,531,308,532.34,309.51Z"/><path class="cls-2" d="M628.43,231.33a13.2,13.2,0,0,0,2.68-2.49l-.53-.83a23.48,23.48,0,0,0-3.75,0c-1.62.25-2,1.65-.77,2.69C626.66,231.18,627.94,231.63,628.43,231.33Z"/><path class="cls-2" d="M693.27,289.76a7.69,7.69,0,0,0,5-2.12c1.28-1.36,0-4.27-1.76-5.64a1.27,1.27,0,0,0-.36-.26l-8.71-3.38c-2.07.64-3.89,1-4.71,2.87s.48,3.27,1.74,4.47A13.18,13.18,0,0,0,693.27,289.76Z"/><path class="cls-2" d="M643.58,224.59a36.94,36.94,0,0,0,3.24-2.89c1-1.2.66-2.27-.86-2.72a3.21,3.21,0,0,0-4.11,1.32C640.7,222.23,641.92,223.34,643.58,224.59Z"/><path class="cls-2" d="M662,279.56h.29a6.06,6.06,0,0,0,5.75-5.52,4.68,4.68,0,0,0-4.87-4.24l-.13.11a4.91,4.91,0,0,0-5,4.8c0,.2,0,.41,0,.61A4.08,4.08,0,0,0,662,279.56Z"/><text class="cls-3" transform="translate(641.4 869.63)">#</text></g></g></svg>