<svg width="776" height="776" viewBox="0 0 776 776" fill="none" xmlns="http://www.w3.org/2000/svg">
<path d="M530.857 74H245.143C213.714 74 188 99.6909 188 131.091V644.909C188 676.309 213.714 702 245.143 702H530.857C562.286 702 588 676.309 588 644.909V131.091C588 99.6909 562.286 74 530.857 74ZM530.857 479.631C488 457.651 439.429 445.091 388 445.091C336.571 445.091 288 457.651 245.143 479.631V216.727H530.857V479.631Z" fill="#BA0BAB"/>
<path d="M388 419.055C433.706 419.055 470.759 380.433 470.759 332.791C470.759 285.149 433.706 246.527 388 246.527C342.294 246.527 305.241 285.149 305.241 332.791C305.241 380.433 342.294 419.055 388 419.055Z" fill="#BA0BAB"/>
</svg>
